<svg width="389" height="186" viewBox="0 0 389 186" fill="none" xmlns="http://www.w3.org/2000/svg">
<path d="M19.1836 106.893H16.5703V114H14.8125V106.893H12.2344V105.469H19.1836V106.893ZM21.8672 114H20.168V107.66H21.8672V114ZM20.0684 106.02C20.0684 105.766 20.1523 105.557 20.3203 105.393C20.4922 105.229 20.7246 105.146 21.0176 105.146C21.3066 105.146 21.5371 105.229 21.709 105.393C21.8809 105.557 21.9668 105.766 21.9668 106.02C21.9668 106.277 21.8789 106.488 21.7031 106.652C21.5312 106.816 21.3027 106.898 21.0176 106.898C20.7324 106.898 20.502 106.816 20.3262 106.652C20.1543 106.488 20.0684 106.277 20.0684 106.02ZM24.8555 107.66L24.9082 108.369C25.3574 107.818 25.9648 107.543 26.7305 107.543C27.5469 107.543 28.1074 107.865 28.4121 108.51C28.8574 107.865 29.4922 107.543 30.3164 107.543C31.0039 107.543 31.5156 107.744 31.8516 108.146C32.1875 108.545 32.3555 109.146 32.3555 109.951V114H30.6562V109.957C30.6562 109.598 30.5859 109.336 30.4453 109.172C30.3047 109.004 30.0566 108.92 29.7012 108.92C29.1934 108.92 28.8418 109.162 28.6465 109.646L28.6523 114H26.959V109.963C26.959 109.596 26.8867 109.33 26.7422 109.166C26.5977 109.002 26.3516 108.92 26.0039 108.92C25.5234 108.92 25.1758 109.119 24.9609 109.518V114H23.2676V107.66H24.8555ZM36.5801 114.117C35.6504 114.117 34.8926 113.832 34.3066 113.262C33.7246 112.691 33.4336 111.932 33.4336 110.982V110.818C33.4336 110.182 33.5566 109.613 33.8027 109.113C34.0488 108.609 34.3965 108.223 34.8457 107.953C35.2988 107.68 35.8145 107.543 36.3926 107.543C37.2598 107.543 37.9414 107.816 38.4375 108.363C38.9375 108.91 39.1875 109.686 39.1875 110.689V111.381H35.1504C35.2051 111.795 35.3691 112.127 35.6426 112.377C35.9199 112.627 36.2695 112.752 36.6914 112.752C37.3438 112.752 37.8535 112.516 38.2207 112.043L39.0527 112.975C38.7988 113.334 38.4551 113.615 38.0215 113.818C37.5879 114.018 37.1074 114.117 36.5801 114.117ZM36.3867 108.914C36.0508 108.914 35.7773 109.027 35.5664 109.254C35.3594 109.48 35.2266 109.805 35.168 110.227H37.5234V110.092C37.5156 109.717 37.4141 109.428 37.2188 109.225C37.0234 109.018 36.7461 108.914 36.3867 108.914ZM41.9414 114H40.2422V105H41.9414V114ZM45.1289 114H43.4297V107.66H45.1289V114ZM43.3301 106.02C43.3301 105.766 43.4141 105.557 43.582 105.393C43.7539 105.229 43.9863 105.146 44.2793 105.146C44.5684 105.146 44.7988 105.229 44.9707 105.393C45.1426 105.557 45.2285 105.766 45.2285 106.02C45.2285 106.277 45.1406 106.488 44.9648 106.652C44.793 106.816 44.5645 106.898 44.2793 106.898C43.9941 106.898 43.7637 106.816 43.5879 106.652C43.416 106.488 43.3301 106.277 43.3301 106.02ZM48.0879 107.66L48.1406 108.393C48.5938 107.826 49.2012 107.543 49.9629 107.543C50.6348 107.543 51.1348 107.74 51.4629 108.135C51.791 108.529 51.959 109.119 51.9668 109.904V114H50.2734V109.945C50.2734 109.586 50.1953 109.326 50.0391 109.166C49.8828 109.002 49.623 108.92 49.2598 108.92C48.7832 108.92 48.4258 109.123 48.1875 109.529V114H46.4941V107.66H48.0879ZM56.1738 114.117C55.2441 114.117 54.4863 113.832 53.9004 113.262C53.3184 112.691 53.0273 111.932 53.0273 110.982V110.818C53.0273 110.182 53.1504 109.613 53.3965 109.113C53.6426 108.609 53.9902 108.223 54.4395 107.953C54.8926 107.68 55.4082 107.543 55.9863 107.543C56.8535 107.543 57.5352 107.816 58.0312 108.363C58.5312 108.91 58.7812 109.686 58.7812 110.689V111.381H54.7441C54.7988 111.795 54.9629 112.127 55.2363 112.377C55.5137 112.627 55.8633 112.752 56.2852 112.752C56.9375 112.752 57.4473 112.516 57.8145 112.043L58.6465 112.975C58.3926 113.334 58.0488 113.615 57.6152 113.818C57.1816 114.018 56.7012 114.117 56.1738 114.117ZM55.9805 108.914C55.6445 108.914 55.3711 109.027 55.1602 109.254C54.9531 109.48 54.8203 109.805 54.7617 110.227H57.1172V110.092C57.1094 109.717 57.0078 109.428 56.8125 109.225C56.6172 109.018 56.3398 108.914 55.9805 108.914ZM67.9805 110.303H64.6055V112.588H68.5664V114H62.8477V105.469H68.5547V106.893H64.6055V108.926H67.9805V110.303ZM71.9004 109.553L72.9668 107.66H74.7773L72.9727 110.766L74.8535 114H73.0371L71.9062 112.008L70.7812 114H68.959L70.8398 110.766L69.041 107.66H70.8574L71.9004 109.553ZM81.2988 110.889C81.2988 111.865 81.0762 112.648 80.6309 113.238C80.1895 113.824 79.5918 114.117 78.8379 114.117C78.1973 114.117 77.6797 113.895 77.2852 113.449V116.438H75.5918V107.66H77.1621L77.2207 108.281C77.6309 107.789 78.166 107.543 78.8262 107.543C79.6074 107.543 80.2148 107.832 80.6484 108.41C81.082 108.988 81.2988 109.785 81.2988 110.801V110.889ZM79.6055 110.766C79.6055 110.176 79.5 109.721 79.2891 109.4C79.082 109.08 78.7793 108.92 78.3809 108.92C77.8496 108.92 77.4844 109.123 77.2852 109.529V112.125C77.4922 112.543 77.8613 112.752 78.3926 112.752C79.2012 112.752 79.6055 112.09 79.6055 110.766ZM82.0898 110.771C82.0898 110.143 82.2109 109.582 82.4531 109.09C82.6953 108.598 83.043 108.217 83.4961 107.947C83.9531 107.678 84.4824 107.543 85.084 107.543C85.9395 107.543 86.6367 107.805 87.1758 108.328C87.7188 108.852 88.0215 109.562 88.084 110.461L88.0957 110.895C88.0957 111.867 87.8242 112.648 87.2812 113.238C86.7383 113.824 86.0098 114.117 85.0957 114.117C84.1816 114.117 83.4512 113.824 82.9043 113.238C82.3613 112.652 82.0898 111.855 82.0898 110.848V110.771ZM83.7832 110.895C83.7832 111.496 83.8965 111.957 84.123 112.277C84.3496 112.594 84.6738 112.752 85.0957 112.752C85.5059 112.752 85.8262 112.596 86.0566 112.283C86.2871 111.967 86.4023 111.463 86.4023 110.771C86.4023 110.182 86.2871 109.725 86.0566 109.4C85.8262 109.076 85.502 108.914 85.084 108.914C84.6699 108.914 84.3496 109.076 84.123 109.4C83.8965 109.721 83.7832 110.219 83.7832 110.895ZM92.7012 109.248C92.4707 109.217 92.2676 109.201 92.0918 109.201C91.4512 109.201 91.0312 109.418 90.832 109.852V114H89.1387V107.66H90.7383L90.7852 108.416C91.125 107.834 91.5957 107.543 92.1973 107.543C92.3848 107.543 92.5605 107.568 92.7246 107.619L92.7012 109.248ZM95.8418 106.102V107.66H96.9258V108.902H95.8418V112.066C95.8418 112.301 95.8867 112.469 95.9766 112.57C96.0664 112.672 96.2383 112.723 96.4922 112.723C96.6797 112.723 96.8457 112.709 96.9902 112.682V113.965C96.6582 114.066 96.3164 114.117 95.9648 114.117C94.7773 114.117 94.1719 113.518 94.1484 112.318V108.902H93.2227V107.66H94.1484V106.102H95.8418Z" fill="white"/>
<path d="M14.6279 130.148C13.9043 129.94 13.377 129.685 13.0459 129.383C12.7178 129.079 12.5537 128.704 12.5537 128.258C12.5537 127.754 12.7544 127.338 13.1558 127.01C13.5601 126.679 14.0845 126.514 14.729 126.514C15.1685 126.514 15.5596 126.599 15.9023 126.769C16.248 126.938 16.5146 127.173 16.7021 127.472C16.8926 127.771 16.9878 128.097 16.9878 128.452H16.1396C16.1396 128.065 16.0166 127.762 15.7705 127.542C15.5244 127.319 15.1772 127.208 14.729 127.208C14.313 127.208 13.9878 127.3 13.7534 127.485C13.522 127.667 13.4062 127.92 13.4062 128.245C13.4062 128.506 13.5161 128.727 13.7358 128.909C13.9585 129.087 14.335 129.251 14.8652 129.401C15.3984 129.55 15.8145 129.716 16.1133 129.897C16.415 130.076 16.6377 130.286 16.7812 130.526C16.9277 130.766 17.001 131.049 17.001 131.374C17.001 131.893 16.7988 132.309 16.3945 132.622C15.9902 132.933 15.4497 133.088 14.7729 133.088C14.3335 133.088 13.9233 133.004 13.5425 132.837C13.1616 132.667 12.8672 132.436 12.6592 132.143C12.4541 131.85 12.3516 131.518 12.3516 131.146H13.1997C13.1997 131.532 13.3418 131.838 13.626 132.064C13.9131 132.287 14.2954 132.398 14.7729 132.398C15.2183 132.398 15.5596 132.307 15.7969 132.125C16.0342 131.944 16.1528 131.696 16.1528 131.383C16.1528 131.069 16.043 130.828 15.8232 130.658C15.6035 130.485 15.2051 130.315 14.6279 130.148ZM19.9321 133.088C19.2876 133.088 18.7632 132.877 18.3589 132.455C17.9546 132.03 17.7524 131.463 17.7524 130.754V130.605C17.7524 130.133 17.8418 129.713 18.0205 129.344C18.2021 128.972 18.4541 128.682 18.7764 128.474C19.1016 128.263 19.4531 128.157 19.8311 128.157C20.4492 128.157 20.9297 128.361 21.2725 128.768C21.6152 129.175 21.7866 129.758 21.7866 130.517V130.855H18.5654C18.5771 131.324 18.7134 131.704 18.9741 131.994C19.2378 132.281 19.5718 132.424 19.9761 132.424C20.2632 132.424 20.5063 132.366 20.7056 132.249C20.9048 132.131 21.0791 131.976 21.2285 131.783L21.7251 132.169C21.3267 132.782 20.729 133.088 19.9321 133.088ZM19.8311 128.825C19.5029 128.825 19.2275 128.945 19.0049 129.186C18.7822 129.423 18.6445 129.757 18.5918 130.188H20.9736V130.126C20.9502 129.713 20.8389 129.394 20.6396 129.168C20.4404 128.939 20.1709 128.825 19.8311 128.825ZM22.5381 130.583C22.5381 129.842 22.7095 129.253 23.0522 128.816C23.395 128.377 23.8491 128.157 24.4146 128.157C24.9946 128.157 25.4473 128.362 25.7725 128.772L25.812 128.245H26.5547V132.886C26.5547 133.501 26.3716 133.986 26.0054 134.34C25.6421 134.695 25.1528 134.872 24.5376 134.872C24.1948 134.872 23.8594 134.799 23.5312 134.652C23.2031 134.506 22.9526 134.305 22.7798 134.05L23.2017 133.562C23.5503 133.993 23.9766 134.208 24.4805 134.208C24.876 134.208 25.1836 134.097 25.4033 133.875C25.626 133.652 25.7373 133.338 25.7373 132.934V132.525C25.4121 132.9 24.9683 133.088 24.4058 133.088C23.8491 133.088 23.3979 132.864 23.0522 132.416C22.7095 131.967 22.5381 131.356 22.5381 130.583ZM23.3555 130.675C23.3555 131.211 23.4653 131.633 23.6851 131.941C23.9048 132.246 24.2124 132.398 24.6079 132.398C25.1206 132.398 25.4971 132.165 25.7373 131.699V129.528C25.4883 129.074 25.1147 128.847 24.6167 128.847C24.2212 128.847 23.9121 129.001 23.6895 129.309C23.4668 129.616 23.3555 130.072 23.3555 130.675ZM28.5498 128.245L28.5718 128.772C28.9204 128.362 29.3906 128.157 29.9824 128.157C30.6475 128.157 31.1001 128.412 31.3403 128.922C31.4985 128.693 31.7036 128.509 31.9556 128.368C32.2104 128.228 32.5107 128.157 32.8564 128.157C33.8994 128.157 34.4297 128.709 34.4473 129.814V133H33.6343V129.862C33.6343 129.522 33.5566 129.269 33.4014 129.102C33.2461 128.932 32.9854 128.847 32.6191 128.847C32.3174 128.847 32.0669 128.938 31.8677 129.12C31.6685 129.298 31.5527 129.54 31.5205 129.845V133H30.7031V129.884C30.7031 129.193 30.3647 128.847 29.688 128.847C29.1548 128.847 28.79 129.074 28.5938 129.528V133H27.7808V128.245H28.5498ZM37.6509 133.088C37.0063 133.088 36.4819 132.877 36.0776 132.455C35.6733 132.03 35.4712 131.463 35.4712 130.754V130.605C35.4712 130.133 35.5605 129.713 35.7393 129.344C35.9209 128.972 36.1729 128.682 36.4951 128.474C36.8203 128.263 37.1719 128.157 37.5498 128.157C38.168 128.157 38.6484 128.361 38.9912 128.768C39.334 129.175 39.5054 129.758 39.5054 130.517V130.855H36.2842C36.2959 131.324 36.4321 131.704 36.6929 131.994C36.9565 132.281 37.2905 132.424 37.6948 132.424C37.9819 132.424 38.2251 132.366 38.4243 132.249C38.6235 132.131 38.7979 131.976 38.9473 131.783L39.4438 132.169C39.0454 132.782 38.4478 133.088 37.6509 133.088ZM37.5498 128.825C37.2217 128.825 36.9463 128.945 36.7236 129.186C36.501 129.423 36.3633 129.757 36.3105 130.188H38.6924V130.126C38.6689 129.713 38.5576 129.394 38.3584 129.168C38.1592 128.939 37.8896 128.825 37.5498 128.825ZM41.2192 128.245L41.2456 128.843C41.6089 128.386 42.0835 128.157 42.6694 128.157C43.6743 128.157 44.1812 128.724 44.1899 129.858V133H43.377V129.854C43.374 129.511 43.2949 129.257 43.1396 129.093C42.9873 128.929 42.7485 128.847 42.4233 128.847C42.1597 128.847 41.9282 128.917 41.729 129.058C41.5298 129.199 41.3745 129.383 41.2632 129.612V133H40.4502V128.245H41.2192ZM46.519 127.094V128.245H47.4067V128.874H46.519V131.822C46.519 132.013 46.5586 132.156 46.6377 132.253C46.7168 132.347 46.8516 132.394 47.042 132.394C47.1357 132.394 47.2646 132.376 47.4287 132.341V133C47.2148 133.059 47.0068 133.088 46.8047 133.088C46.4414 133.088 46.1675 132.978 45.9829 132.758C45.7983 132.539 45.7061 132.227 45.7061 131.822V128.874H44.8403V128.245H45.7061V127.094H46.519ZM51.1289 131.739C51.1289 131.519 51.0454 131.349 50.8784 131.229C50.7144 131.106 50.4258 131 50.0127 130.913C49.6025 130.825 49.2759 130.719 49.0327 130.596C48.7925 130.473 48.6138 130.327 48.4966 130.157C48.3823 129.987 48.3252 129.785 48.3252 129.55C48.3252 129.161 48.4893 128.831 48.8174 128.562C49.1484 128.292 49.5703 128.157 50.083 128.157C50.6221 128.157 51.0586 128.296 51.3926 128.575C51.7295 128.853 51.8979 129.209 51.8979 129.643H51.0806C51.0806 129.42 50.9854 129.228 50.7949 129.067C50.6074 128.906 50.3701 128.825 50.083 128.825C49.7871 128.825 49.5557 128.89 49.3887 129.019C49.2217 129.147 49.1382 129.316 49.1382 129.524C49.1382 129.72 49.2158 129.868 49.3711 129.968C49.5264 130.067 49.8062 130.163 50.2104 130.253C50.6177 130.344 50.9473 130.453 51.1992 130.579C51.4512 130.705 51.6372 130.857 51.7573 131.036C51.8804 131.211 51.9419 131.427 51.9419 131.682C51.9419 132.106 51.772 132.448 51.4321 132.706C51.0923 132.96 50.6514 133.088 50.1094 133.088C49.7285 133.088 49.3916 133.021 49.0986 132.886C48.8057 132.751 48.5757 132.563 48.4087 132.323C48.2446 132.08 48.1626 131.818 48.1626 131.537H48.9756C48.9902 131.809 49.0986 132.026 49.3008 132.187C49.5059 132.345 49.7754 132.424 50.1094 132.424C50.417 132.424 50.6631 132.363 50.8477 132.24C51.0352 132.114 51.1289 131.947 51.1289 131.739ZM58.1689 133C58.1221 132.906 58.084 132.739 58.0547 132.499C57.6768 132.892 57.2256 133.088 56.7012 133.088C56.2324 133.088 55.8472 132.956 55.5454 132.692C55.2466 132.426 55.0972 132.089 55.0972 131.682C55.0972 131.187 55.2847 130.803 55.6597 130.53C56.0376 130.255 56.5679 130.117 57.2505 130.117H58.0415V129.744C58.0415 129.459 57.9565 129.234 57.7866 129.067C57.6167 128.897 57.3662 128.812 57.0352 128.812C56.7451 128.812 56.502 128.885 56.3057 129.032C56.1094 129.178 56.0112 129.355 56.0112 129.563H55.1938C55.1938 129.326 55.2773 129.098 55.4443 128.878C55.6143 128.655 55.8428 128.479 56.1299 128.351C56.4199 128.222 56.7378 128.157 57.0835 128.157C57.6313 128.157 58.0605 128.295 58.3711 128.57C58.6816 128.843 58.8428 129.219 58.8545 129.7V131.888C58.8545 132.325 58.9102 132.672 59.0215 132.93V133H58.1689ZM56.8198 132.38C57.0747 132.38 57.3164 132.314 57.5449 132.183C57.7734 132.051 57.939 131.879 58.0415 131.668V130.693H57.4043C56.4082 130.693 55.9102 130.984 55.9102 131.567C55.9102 131.822 55.9951 132.021 56.165 132.165C56.335 132.309 56.5532 132.38 56.8198 132.38ZM60.8979 128.245L60.9243 128.843C61.2876 128.386 61.7622 128.157 62.3481 128.157C63.353 128.157 63.8599 128.724 63.8687 129.858V133H63.0557V129.854C63.0527 129.511 62.9736 129.257 62.8184 129.093C62.666 128.929 62.4272 128.847 62.1021 128.847C61.8384 128.847 61.6069 128.917 61.4077 129.058C61.2085 129.199 61.0532 129.383 60.9419 129.612V133H60.1289V128.245H60.8979ZM64.897 130.583C64.897 129.854 65.0698 129.268 65.4155 128.825C65.7612 128.38 66.2139 128.157 66.7734 128.157C67.3301 128.157 67.771 128.348 68.0962 128.729V126.25H68.9092V133H68.1621L68.1226 132.49C67.7974 132.889 67.3447 133.088 66.7646 133.088C66.2139 133.088 65.7642 132.862 65.4155 132.411C65.0698 131.96 64.897 131.371 64.897 130.645V130.583ZM65.71 130.675C65.71 131.214 65.8213 131.636 66.0439 131.941C66.2666 132.246 66.5742 132.398 66.9668 132.398C67.4824 132.398 67.8589 132.167 68.0962 131.704V129.52C67.853 129.071 67.4795 128.847 66.9756 128.847C66.5771 128.847 66.2666 129.001 66.0439 129.309C65.8213 129.616 65.71 130.072 65.71 130.675ZM13.3799 139.245L13.4019 139.772C13.7505 139.362 14.2207 139.157 14.8125 139.157C15.4775 139.157 15.9302 139.412 16.1704 139.922C16.3286 139.693 16.5337 139.509 16.7856 139.368C17.0405 139.228 17.3408 139.157 17.6865 139.157C18.7295 139.157 19.2598 139.709 19.2773 140.814V144H18.4644V140.862C18.4644 140.522 18.3867 140.269 18.2314 140.102C18.0762 139.932 17.8154 139.847 17.4492 139.847C17.1475 139.847 16.897 139.938 16.6978 140.12C16.4985 140.298 16.3828 140.54 16.3506 140.845V144H15.5332V140.884C15.5332 140.193 15.1948 139.847 14.5181 139.847C13.9849 139.847 13.6201 140.074 13.4238 140.528V144H12.6108V139.245H13.3799ZM23.4434 144C23.3965 143.906 23.3584 143.739 23.3291 143.499C22.9512 143.892 22.5 144.088 21.9756 144.088C21.5068 144.088 21.1216 143.956 20.8198 143.692C20.521 143.426 20.3716 143.089 20.3716 142.682C20.3716 142.187 20.5591 141.803 20.9341 141.53C21.312 141.255 21.8423 141.117 22.5249 141.117H23.3159V140.744C23.3159 140.459 23.231 140.234 23.061 140.067C22.8911 139.897 22.6406 139.812 22.3096 139.812C22.0195 139.812 21.7764 139.885 21.5801 140.032C21.3838 140.178 21.2856 140.355 21.2856 140.563H20.4683C20.4683 140.326 20.5518 140.098 20.7188 139.878C20.8887 139.655 21.1172 139.479 21.4043 139.351C21.6943 139.222 22.0122 139.157 22.3579 139.157C22.9058 139.157 23.335 139.295 23.6455 139.57C23.9561 139.843 24.1172 140.219 24.1289 140.7V142.888C24.1289 143.325 24.1846 143.672 24.2959 143.93V144H23.4434ZM22.0942 143.38C22.3491 143.38 22.5908 143.314 22.8193 143.183C23.0479 143.051 23.2134 142.879 23.3159 142.668V141.693H22.6787C21.6826 141.693 21.1846 141.984 21.1846 142.567C21.1846 142.822 21.2695 143.021 21.4395 143.165C21.6094 143.309 21.8276 143.38 22.0942 143.38ZM27.7017 139.975C27.5786 139.954 27.4453 139.944 27.3018 139.944C26.7686 139.944 26.4067 140.171 26.2163 140.625V144H25.4033V139.245H26.1943L26.2075 139.794C26.4741 139.37 26.8521 139.157 27.3413 139.157C27.4995 139.157 27.6196 139.178 27.7017 139.219V139.975ZM29.7803 141.798L29.2705 142.33V144H28.4575V137.25H29.2705V141.333L29.7056 140.81L31.1865 139.245H32.1753L30.3252 141.231L32.3906 144H31.437L29.7803 141.798ZM34.8999 144.088C34.2554 144.088 33.731 143.877 33.3267 143.455C32.9224 143.03 32.7202 142.463 32.7202 141.754V141.605C32.7202 141.133 32.8096 140.713 32.9883 140.344C33.1699 139.972 33.4219 139.682 33.7441 139.474C34.0693 139.263 34.4209 139.157 34.7988 139.157C35.417 139.157 35.8975 139.361 36.2402 139.768C36.583 140.175 36.7544 140.758 36.7544 141.517V141.855H33.5332C33.5449 142.324 33.6812 142.704 33.9419 142.994C34.2056 143.281 34.5396 143.424 34.9438 143.424C35.231 143.424 35.4741 143.366 35.6733 143.249C35.8726 143.131 36.0469 142.976 36.1963 142.783L36.6929 143.169C36.2944 143.782 35.6968 144.088 34.8999 144.088ZM34.7988 139.825C34.4707 139.825 34.1953 139.945 33.9727 140.186C33.75 140.423 33.6123 140.757 33.5596 141.188H35.9414V141.126C35.918 140.713 35.8066 140.394 35.6074 140.168C35.4082 139.939 35.1387 139.825 34.7988 139.825ZM39.9976 139.975C39.8745 139.954 39.7412 139.944 39.5977 139.944C39.0645 139.944 38.7026 140.171 38.5122 140.625V144H37.6992V139.245H38.4902L38.5034 139.794C38.77 139.37 39.1479 139.157 39.6372 139.157C39.7954 139.157 39.9155 139.178 39.9976 139.219V139.975ZM43.5176 142.739C43.5176 142.519 43.4341 142.349 43.2671 142.229C43.103 142.106 42.8145 142 42.4014 141.913C41.9912 141.825 41.6646 141.719 41.4214 141.596C41.1812 141.473 41.0024 141.327 40.8853 141.157C40.771 140.987 40.7139 140.785 40.7139 140.55C40.7139 140.161 40.8779 139.831 41.2061 139.562C41.5371 139.292 41.959 139.157 42.4717 139.157C43.0107 139.157 43.4473 139.296 43.7812 139.575C44.1182 139.853 44.2866 140.209 44.2866 140.643H43.4692C43.4692 140.42 43.374 140.228 43.1836 140.067C42.9961 139.906 42.7588 139.825 42.4717 139.825C42.1758 139.825 41.9443 139.89 41.7773 140.019C41.6104 140.147 41.5269 140.316 41.5269 140.524C41.5269 140.72 41.6045 140.868 41.7598 140.968C41.915 141.067 42.1948 141.163 42.5991 141.253C43.0063 141.344 43.3359 141.453 43.5879 141.579C43.8398 141.705 44.0259 141.857 44.146 142.036C44.269 142.211 44.3306 142.427 44.3306 142.682C44.3306 143.106 44.1606 143.448 43.8208 143.706C43.481 143.96 43.04 144.088 42.498 144.088C42.1172 144.088 41.7803 144.021 41.4873 143.886C41.1943 143.751 40.9644 143.563 40.7974 143.323C40.6333 143.08 40.5513 142.818 40.5513 142.537H41.3643C41.3789 142.809 41.4873 143.026 41.6895 143.187C41.8945 143.345 42.1641 143.424 42.498 143.424C42.8057 143.424 43.0518 143.363 43.2363 143.24C43.4238 143.114 43.5176 142.947 43.5176 142.739ZM48.022 144V139.874H47.2705V139.245H48.022V138.757C48.022 138.248 48.1582 137.854 48.4307 137.575C48.7031 137.297 49.0884 137.158 49.5864 137.158C49.7739 137.158 49.96 137.183 50.1445 137.232L50.1006 137.892C49.9629 137.865 49.8164 137.852 49.6611 137.852C49.3975 137.852 49.1938 137.93 49.0503 138.085C48.9067 138.237 48.835 138.457 48.835 138.744V139.245H49.8501V139.874H48.835V144H48.022ZM53.0493 139.975C52.9263 139.954 52.793 139.944 52.6494 139.944C52.1162 139.944 51.7544 140.171 51.564 140.625V144H50.751V139.245H51.542L51.5552 139.794C51.8218 139.37 52.1997 139.157 52.689 139.157C52.8472 139.157 52.9673 139.178 53.0493 139.219V139.975ZM53.4976 141.579C53.4976 141.113 53.5884 140.694 53.77 140.322C53.9546 139.95 54.2095 139.663 54.5347 139.46C54.8628 139.258 55.2363 139.157 55.6553 139.157C56.3027 139.157 56.8257 139.381 57.2241 139.83C57.6255 140.278 57.8262 140.874 57.8262 141.618V141.675C57.8262 142.138 57.7368 142.554 57.5581 142.923C57.3823 143.29 57.1289 143.575 56.7979 143.78C56.4697 143.985 56.0918 144.088 55.6641 144.088C55.0195 144.088 54.4966 143.864 54.0952 143.416C53.6968 142.967 53.4976 142.374 53.4976 141.636V141.579ZM54.3149 141.675C54.3149 142.203 54.4365 142.626 54.6797 142.945C54.9258 143.265 55.2539 143.424 55.6641 143.424C56.0771 143.424 56.4053 143.263 56.6484 142.941C56.8916 142.616 57.0132 142.162 57.0132 141.579C57.0132 141.057 56.8887 140.635 56.6396 140.313C56.3936 139.988 56.0654 139.825 55.6553 139.825C55.2539 139.825 54.9302 139.985 54.6841 140.304C54.438 140.624 54.3149 141.081 54.3149 141.675ZM59.6104 139.245L59.6323 139.772C59.981 139.362 60.4512 139.157 61.043 139.157C61.708 139.157 62.1606 139.412 62.4009 139.922C62.5591 139.693 62.7642 139.509 63.0161 139.368C63.271 139.228 63.5713 139.157 63.917 139.157C64.96 139.157 65.4902 139.709 65.5078 140.814V144H64.6948V140.862C64.6948 140.522 64.6172 140.269 64.4619 140.102C64.3066 139.932 64.0459 139.847 63.6797 139.847C63.3779 139.847 63.1274 139.938 62.9282 140.12C62.729 140.298 62.6133 140.54 62.5811 140.845V144H61.7637V140.884C61.7637 140.193 61.4253 139.847 60.7485 139.847C60.2153 139.847 59.8506 140.074 59.6543 140.528V144H58.8413V139.245H59.6104ZM70.5264 142.809L71.6338 139.245H72.5039L70.5923 144.734C70.2964 145.525 69.8262 145.92 69.1816 145.92L69.0278 145.907L68.7246 145.85V145.191L68.9443 145.208C69.2197 145.208 69.4336 145.153 69.5859 145.042C69.7412 144.93 69.8687 144.727 69.9683 144.431L70.1484 143.947L68.4521 139.245H69.3398L70.5264 142.809ZM72.9478 141.579C72.9478 141.113 73.0386 140.694 73.2202 140.322C73.4048 139.95 73.6597 139.663 73.9849 139.46C74.313 139.258 74.6865 139.157 75.1055 139.157C75.7529 139.157 76.2759 139.381 76.6743 139.83C77.0757 140.278 77.2764 140.874 77.2764 141.618V141.675C77.2764 142.138 77.187 142.554 77.0083 142.923C76.8325 143.29 76.5791 143.575 76.248 143.78C75.9199 143.985 75.542 144.088 75.1143 144.088C74.4697 144.088 73.9468 143.864 73.5454 143.416C73.147 142.967 72.9478 142.374 72.9478 141.636V141.579ZM73.7651 141.675C73.7651 142.203 73.8867 142.626 74.1299 142.945C74.376 143.265 74.7041 143.424 75.1143 143.424C75.5273 143.424 75.8555 143.263 76.0986 142.941C76.3418 142.616 76.4634 142.162 76.4634 141.579C76.4634 141.057 76.3389 140.635 76.0898 140.313C75.8438 139.988 75.5156 139.825 75.1055 139.825C74.7041 139.825 74.3804 139.985 74.1343 140.304C73.8882 140.624 73.7651 141.081 73.7651 141.675ZM81.2314 143.53C80.915 143.902 80.4507 144.088 79.8384 144.088C79.3315 144.088 78.9448 143.941 78.6782 143.648C78.4146 143.353 78.2812 142.916 78.2783 142.339V139.245H79.0913V142.317C79.0913 143.038 79.3843 143.398 79.9702 143.398C80.5913 143.398 81.0044 143.167 81.2095 142.704V139.245H82.0225V144H81.249L81.2314 143.53ZM85.5601 139.975C85.437 139.954 85.3037 139.944 85.1602 139.944C84.627 139.944 84.2651 140.171 84.0747 140.625V144H83.2617V139.245H84.0527L84.0659 139.794C84.3325 139.37 84.7104 139.157 85.1997 139.157C85.3579 139.157 85.478 139.178 85.5601 139.219V139.975ZM14.5884 155.088C13.9438 155.088 13.4194 154.877 13.0151 154.455C12.6108 154.03 12.4087 153.463 12.4087 152.754V152.605C12.4087 152.133 12.498 151.713 12.6768 151.344C12.8584 150.972 13.1104 150.682 13.4326 150.474C13.7578 150.263 14.1094 150.157 14.4873 150.157C15.1055 150.157 15.5859 150.361 15.9287 150.768C16.2715 151.175 16.4429 151.758 16.4429 152.517V152.855H13.2217C13.2334 153.324 13.3696 153.704 13.6304 153.994C13.894 154.281 14.228 154.424 14.6323 154.424C14.9194 154.424 15.1626 154.366 15.3618 154.249C15.561 154.131 15.7354 153.976 15.8848 153.783L16.3813 154.169C15.9829 154.782 15.3853 155.088 14.5884 155.088ZM14.4873 150.825C14.1592 150.825 13.8838 150.945 13.6611 151.186C13.4385 151.423 13.3008 151.757 13.248 152.188H15.6299V152.126C15.6064 151.713 15.4951 151.394 15.2959 151.168C15.0967 150.939 14.8271 150.825 14.4873 150.825ZM17.1899 152.583C17.1899 151.854 17.3628 151.268 17.7085 150.825C18.0542 150.38 18.5068 150.157 19.0664 150.157C19.623 150.157 20.064 150.348 20.3892 150.729V148.25H21.2021V155H20.4551L20.4155 154.49C20.0903 154.889 19.6377 155.088 19.0576 155.088C18.5068 155.088 18.0571 154.862 17.7085 154.411C17.3628 153.96 17.1899 153.371 17.1899 152.645V152.583ZM18.0029 152.675C18.0029 153.214 18.1143 153.636 18.3369 153.941C18.5596 154.246 18.8672 154.398 19.2598 154.398C19.7754 154.398 20.1519 154.167 20.3892 153.704V151.52C20.146 151.071 19.7725 150.847 19.2686 150.847C18.8701 150.847 18.5596 151.001 18.3369 151.309C18.1143 151.616 18.0029 152.072 18.0029 152.675ZM23.3511 155H22.5381V150.245H23.3511V155ZM22.4722 148.984C22.4722 148.852 22.5117 148.741 22.5908 148.65C22.6729 148.559 22.793 148.514 22.9512 148.514C23.1094 148.514 23.2295 148.559 23.3115 148.65C23.3936 148.741 23.4346 148.852 23.4346 148.984C23.4346 149.116 23.3936 149.226 23.3115 149.313C23.2295 149.401 23.1094 149.445 22.9512 149.445C22.793 149.445 22.6729 149.401 22.5908 149.313C22.5117 149.226 22.4722 149.116 22.4722 148.984ZM25.7593 149.094V150.245H26.647V150.874H25.7593V153.822C25.7593 154.013 25.7988 154.156 25.8779 154.253C25.957 154.347 26.0918 154.394 26.2822 154.394C26.376 154.394 26.5049 154.376 26.6689 154.341V155C26.4551 155.059 26.2471 155.088 26.0449 155.088C25.6816 155.088 25.4077 154.978 25.2231 154.758C25.0386 154.539 24.9463 154.227 24.9463 153.822V150.874H24.0806V150.245H24.9463V149.094H25.7593ZM27.2974 152.579C27.2974 152.113 27.3882 151.694 27.5698 151.322C27.7544 150.95 28.0093 150.663 28.3345 150.46C28.6626 150.258 29.0361 150.157 29.4551 150.157C30.1025 150.157 30.6255 150.381 31.0239 150.83C31.4253 151.278 31.626 151.874 31.626 152.618V152.675C31.626 153.138 31.5366 153.554 31.3579 153.923C31.1821 154.29 30.9287 154.575 30.5977 154.78C30.2695 154.985 29.8916 155.088 29.4639 155.088C28.8193 155.088 28.2964 154.864 27.895 154.416C27.4966 153.967 27.2974 153.374 27.2974 152.636V152.579ZM28.1147 152.675C28.1147 153.203 28.2363 153.626 28.4795 153.945C28.7256 154.265 29.0537 154.424 29.4639 154.424C29.877 154.424 30.2051 154.263 30.4482 153.941C30.6914 153.616 30.813 153.162 30.813 152.579C30.813 152.057 30.6885 151.635 30.4395 151.313C30.1934 150.988 29.8652 150.825 29.4551 150.825C29.0537 150.825 28.73 150.985 28.4839 151.304C28.2378 151.624 28.1147 152.081 28.1147 152.675ZM34.9438 150.975C34.8208 150.954 34.6875 150.944 34.5439 150.944C34.0107 150.944 33.6489 151.171 33.4585 151.625V155H32.6455V150.245H33.4365L33.4497 150.794C33.7163 150.37 34.0942 150.157 34.5835 150.157C34.7417 150.157 34.8618 150.178 34.9438 150.219V150.975ZM35.168 154.574C35.168 154.433 35.209 154.316 35.291 154.222C35.376 154.128 35.502 154.082 35.6689 154.082C35.8359 154.082 35.9619 154.128 36.0469 154.222C36.1348 154.316 36.1787 154.433 36.1787 154.574C36.1787 154.708 36.1348 154.821 36.0469 154.912C35.9619 155.003 35.8359 155.048 35.6689 155.048C35.502 155.048 35.376 155.003 35.291 154.912C35.209 154.821 35.168 154.708 35.168 154.574Z" fill="#E3E3E3"/>
<path d="M123.089 130.412H121.586V133H120.738V126.602H122.856C123.577 126.602 124.131 126.766 124.518 127.094C124.907 127.422 125.102 127.899 125.102 128.526C125.102 128.925 124.994 129.272 124.777 129.568C124.563 129.864 124.264 130.085 123.88 130.231L125.383 132.947V133H124.478L123.089 130.412ZM121.586 129.722H122.883C123.302 129.722 123.634 129.613 123.88 129.396C124.129 129.18 124.254 128.89 124.254 128.526C124.254 128.131 124.135 127.828 123.898 127.617C123.664 127.406 123.324 127.299 122.878 127.296H121.586V129.722ZM128.134 133.088C127.49 133.088 126.965 132.877 126.561 132.455C126.157 132.03 125.955 131.463 125.955 130.754V130.605C125.955 130.133 126.044 129.713 126.223 129.344C126.404 128.972 126.656 128.682 126.979 128.474C127.304 128.263 127.655 128.157 128.033 128.157C128.651 128.157 129.132 128.361 129.475 128.768C129.817 129.175 129.989 129.758 129.989 130.517V130.855H126.768C126.779 131.324 126.916 131.704 127.176 131.994C127.44 132.281 127.774 132.424 128.178 132.424C128.465 132.424 128.708 132.366 128.908 132.249C129.107 132.131 129.281 131.976 129.431 131.783L129.927 132.169C129.529 132.782 128.931 133.088 128.134 133.088ZM128.033 128.825C127.705 128.825 127.43 128.945 127.207 129.186C126.984 129.423 126.847 129.757 126.794 130.188H129.176V130.126C129.152 129.713 129.041 129.394 128.842 129.168C128.643 128.939 128.373 128.825 128.033 128.825ZM131.703 128.245L131.729 128.843C132.092 128.386 132.567 128.157 133.153 128.157C134.158 128.157 134.665 128.724 134.673 129.858V133H133.86V129.854C133.857 129.511 133.778 129.257 133.623 129.093C133.471 128.929 133.232 128.847 132.907 128.847C132.643 128.847 132.412 128.917 132.212 129.058C132.013 129.199 131.858 129.383 131.747 129.612V133H130.934V128.245H131.703ZM135.702 130.583C135.702 129.854 135.875 129.268 136.22 128.825C136.566 128.38 137.019 128.157 137.578 128.157C138.135 128.157 138.576 128.348 138.901 128.729V126.25H139.714V133H138.967L138.927 132.49C138.602 132.889 138.149 133.088 137.569 133.088C137.019 133.088 136.569 132.862 136.22 132.411C135.875 131.96 135.702 131.371 135.702 130.645V130.583ZM136.515 130.675C136.515 131.214 136.626 131.636 136.849 131.941C137.071 132.246 137.379 132.398 137.771 132.398C138.287 132.398 138.664 132.167 138.901 131.704V129.52C138.658 129.071 138.284 128.847 137.78 128.847C137.382 128.847 137.071 129.001 136.849 129.309C136.626 129.616 136.515 130.072 136.515 130.675ZM142.953 133.088C142.308 133.088 141.784 132.877 141.379 132.455C140.975 132.03 140.773 131.463 140.773 130.754V130.605C140.773 130.133 140.862 129.713 141.041 129.344C141.223 128.972 141.475 128.682 141.797 128.474C142.122 128.263 142.474 128.157 142.852 128.157C143.47 128.157 143.95 128.361 144.293 128.768C144.636 129.175 144.807 129.758 144.807 130.517V130.855H141.586C141.598 131.324 141.734 131.704 141.995 131.994C142.258 132.281 142.592 132.424 142.997 132.424C143.284 132.424 143.527 132.366 143.726 132.249C143.925 132.131 144.1 131.976 144.249 131.783L144.746 132.169C144.347 132.782 143.75 133.088 142.953 133.088ZM142.852 128.825C142.523 128.825 142.248 128.945 142.025 129.186C141.803 129.423 141.665 129.757 141.612 130.188H143.994V130.126C143.971 129.713 143.859 129.394 143.66 129.168C143.461 128.939 143.191 128.825 142.852 128.825ZM148.05 128.975C147.927 128.954 147.794 128.944 147.65 128.944C147.117 128.944 146.755 129.171 146.565 129.625V133H145.752V128.245H146.543L146.556 128.794C146.823 128.37 147.201 128.157 147.69 128.157C147.848 128.157 147.968 128.178 148.05 128.219V128.975ZM150.687 133.088C150.042 133.088 149.518 132.877 149.114 132.455C148.709 132.03 148.507 131.463 148.507 130.754V130.605C148.507 130.133 148.597 129.713 148.775 129.344C148.957 128.972 149.209 128.682 149.531 128.474C149.856 128.263 150.208 128.157 150.586 128.157C151.204 128.157 151.685 128.361 152.027 128.768C152.37 129.175 152.542 129.758 152.542 130.517V130.855H149.32C149.332 131.324 149.468 131.704 149.729 131.994C149.993 132.281 150.327 132.424 150.731 132.424C151.018 132.424 151.261 132.366 151.46 132.249C151.66 132.131 151.834 131.976 151.983 131.783L152.48 132.169C152.082 132.782 151.484 133.088 150.687 133.088ZM150.586 128.825C150.258 128.825 149.982 128.945 149.76 129.186C149.537 129.423 149.399 129.757 149.347 130.188H151.729V130.126C151.705 129.713 151.594 129.394 151.395 129.168C151.195 128.939 150.926 128.825 150.586 128.825ZM153.289 130.583C153.289 129.854 153.461 129.268 153.807 128.825C154.153 128.38 154.605 128.157 155.165 128.157C155.722 128.157 156.163 128.348 156.488 128.729V126.25H157.301V133H156.554L156.514 132.49C156.189 132.889 155.736 133.088 155.156 133.088C154.605 133.088 154.156 132.862 153.807 132.411C153.461 131.96 153.289 131.371 153.289 130.645V130.583ZM154.102 130.675C154.102 131.214 154.213 131.636 154.436 131.941C154.658 132.246 154.966 132.398 155.358 132.398C155.874 132.398 156.25 132.167 156.488 131.704V129.52C156.245 129.071 155.871 128.847 155.367 128.847C154.969 128.847 154.658 129.001 154.436 129.309C154.213 129.616 154.102 130.072 154.102 130.675ZM161.199 133V128.874H160.447V128.245H161.199V127.757C161.199 127.248 161.335 126.854 161.607 126.575C161.88 126.297 162.265 126.158 162.763 126.158C162.951 126.158 163.137 126.183 163.321 126.232L163.277 126.892C163.14 126.865 162.993 126.852 162.838 126.852C162.574 126.852 162.371 126.93 162.227 127.085C162.083 127.237 162.012 127.457 162.012 127.744V128.245H163.027V128.874H162.012V133H161.199ZM166.226 128.975C166.103 128.954 165.97 128.944 165.826 128.944C165.293 128.944 164.931 129.171 164.741 129.625V133H163.928V128.245H164.719L164.732 128.794C164.999 128.37 165.376 128.157 165.866 128.157C166.024 128.157 166.144 128.178 166.226 128.219V128.975ZM166.674 130.579C166.674 130.113 166.765 129.694 166.947 129.322C167.131 128.95 167.386 128.663 167.711 128.46C168.04 128.258 168.413 128.157 168.832 128.157C169.479 128.157 170.002 128.381 170.401 128.83C170.802 129.278 171.003 129.874 171.003 130.618V130.675C171.003 131.138 170.914 131.554 170.735 131.923C170.559 132.29 170.306 132.575 169.975 132.78C169.646 132.985 169.269 133.088 168.841 133.088C168.196 133.088 167.673 132.864 167.272 132.416C166.874 131.967 166.674 131.374 166.674 130.636V130.579ZM167.492 130.675C167.492 131.203 167.613 131.626 167.856 131.945C168.103 132.265 168.431 132.424 168.841 132.424C169.254 132.424 169.582 132.263 169.825 131.941C170.068 131.616 170.19 131.162 170.19 130.579C170.19 130.057 170.065 129.635 169.816 129.313C169.57 128.988 169.242 128.825 168.832 128.825C168.431 128.825 168.107 128.985 167.861 129.304C167.615 129.624 167.492 130.081 167.492 130.675ZM172.787 128.245L172.809 128.772C173.158 128.362 173.628 128.157 174.22 128.157C174.885 128.157 175.337 128.412 175.578 128.922C175.736 128.693 175.941 128.509 176.193 128.368C176.448 128.228 176.748 128.157 177.094 128.157C178.137 128.157 178.667 128.709 178.685 129.814V133H177.872V129.862C177.872 129.522 177.794 129.269 177.639 129.102C177.483 128.932 177.223 128.847 176.856 128.847C176.555 128.847 176.304 128.938 176.105 129.12C175.906 129.298 175.79 129.54 175.758 129.845V133H174.94V129.884C174.94 129.193 174.602 128.847 173.925 128.847C173.392 128.847 173.027 129.074 172.831 129.528V133H172.018V128.245H172.787ZM183.703 131.809L184.811 128.245H185.681L183.769 133.734C183.473 134.525 183.003 134.92 182.358 134.92L182.205 134.907L181.901 134.85V134.191L182.121 134.208C182.396 134.208 182.61 134.153 182.763 134.042C182.918 133.93 183.045 133.727 183.145 133.431L183.325 132.947L181.629 128.245H182.517L183.703 131.809ZM186.125 130.579C186.125 130.113 186.215 129.694 186.397 129.322C186.582 128.95 186.836 128.663 187.162 128.46C187.49 128.258 187.863 128.157 188.282 128.157C188.93 128.157 189.453 128.381 189.851 128.83C190.252 129.278 190.453 129.874 190.453 130.618V130.675C190.453 131.138 190.364 131.554 190.185 131.923C190.009 132.29 189.756 132.575 189.425 132.78C189.097 132.985 188.719 133.088 188.291 133.088C187.646 133.088 187.124 132.864 186.722 132.416C186.324 131.967 186.125 131.374 186.125 130.636V130.579ZM186.942 130.675C186.942 131.203 187.063 131.626 187.307 131.945C187.553 132.265 187.881 132.424 188.291 132.424C188.704 132.424 189.032 132.263 189.275 131.941C189.519 131.616 189.64 131.162 189.64 130.579C189.64 130.057 189.516 129.635 189.267 129.313C189.021 128.988 188.692 128.825 188.282 128.825C187.881 128.825 187.557 128.985 187.311 129.304C187.065 129.624 186.942 130.081 186.942 130.675ZM194.408 132.53C194.092 132.902 193.627 133.088 193.015 133.088C192.508 133.088 192.122 132.941 191.855 132.648C191.591 132.353 191.458 131.916 191.455 131.339V128.245H192.268V131.317C192.268 132.038 192.561 132.398 193.147 132.398C193.768 132.398 194.181 132.167 194.386 131.704V128.245H195.199V133H194.426L194.408 132.53ZM198.737 128.975C198.614 128.954 198.48 128.944 198.337 128.944C197.804 128.944 197.442 129.171 197.251 129.625V133H196.438V128.245H197.229L197.243 128.794C197.509 128.37 197.887 128.157 198.376 128.157C198.535 128.157 198.655 128.178 198.737 128.219V128.975ZM122.588 144.088C121.944 144.088 121.419 143.877 121.015 143.455C120.611 143.03 120.409 142.463 120.409 141.754V141.605C120.409 141.133 120.498 140.713 120.677 140.344C120.858 139.972 121.11 139.682 121.433 139.474C121.758 139.263 122.109 139.157 122.487 139.157C123.105 139.157 123.586 139.361 123.929 139.768C124.271 140.175 124.443 140.758 124.443 141.517V141.855H121.222C121.233 142.324 121.37 142.704 121.63 142.994C121.894 143.281 122.228 143.424 122.632 143.424C122.919 143.424 123.163 143.366 123.362 143.249C123.561 143.131 123.735 142.976 123.885 142.783L124.381 143.169C123.983 143.782 123.385 144.088 122.588 144.088ZM122.487 139.825C122.159 139.825 121.884 139.945 121.661 140.186C121.438 140.423 121.301 140.757 121.248 141.188H123.63V141.126C123.606 140.713 123.495 140.394 123.296 140.168C123.097 139.939 122.827 139.825 122.487 139.825ZM125.19 141.583C125.19 140.854 125.363 140.268 125.708 139.825C126.054 139.38 126.507 139.157 127.066 139.157C127.623 139.157 128.064 139.348 128.389 139.729V137.25H129.202V144H128.455L128.416 143.49C128.09 143.889 127.638 144.088 127.058 144.088C126.507 144.088 126.057 143.862 125.708 143.411C125.363 142.96 125.19 142.371 125.19 141.645V141.583ZM126.003 141.675C126.003 142.214 126.114 142.636 126.337 142.941C126.56 143.246 126.867 143.398 127.26 143.398C127.775 143.398 128.152 143.167 128.389 142.704V140.52C128.146 140.071 127.772 139.847 127.269 139.847C126.87 139.847 126.56 140.001 126.337 140.309C126.114 140.616 126.003 141.072 126.003 141.675ZM131.351 144H130.538V139.245H131.351V144ZM130.472 137.984C130.472 137.852 130.512 137.741 130.591 137.65C130.673 137.559 130.793 137.514 130.951 137.514C131.109 137.514 131.229 137.559 131.312 137.65C131.394 137.741 131.435 137.852 131.435 137.984C131.435 138.116 131.394 138.226 131.312 138.313C131.229 138.401 131.109 138.445 130.951 138.445C130.793 138.445 130.673 138.401 130.591 138.313C130.512 138.226 130.472 138.116 130.472 137.984ZM133.759 138.094V139.245H134.647V139.874H133.759V142.822C133.759 143.013 133.799 143.156 133.878 143.253C133.957 143.347 134.092 143.394 134.282 143.394C134.376 143.394 134.505 143.376 134.669 143.341V144C134.455 144.059 134.247 144.088 134.045 144.088C133.682 144.088 133.408 143.978 133.223 143.758C133.039 143.539 132.946 143.227 132.946 142.822V139.874H132.081V139.245H132.946V138.094H133.759ZM135.297 141.579C135.297 141.113 135.388 140.694 135.57 140.322C135.754 139.95 136.009 139.663 136.334 139.46C136.663 139.258 137.036 139.157 137.455 139.157C138.103 139.157 138.625 139.381 139.024 139.83C139.425 140.278 139.626 140.874 139.626 141.618V141.675C139.626 142.138 139.537 142.554 139.358 142.923C139.182 143.29 138.929 143.575 138.598 143.78C138.27 143.985 137.892 144.088 137.464 144.088C136.819 144.088 136.296 143.864 135.895 143.416C135.497 142.967 135.297 142.374 135.297 141.636V141.579ZM136.115 141.675C136.115 142.203 136.236 142.626 136.479 142.945C136.726 143.265 137.054 143.424 137.464 143.424C137.877 143.424 138.205 143.263 138.448 142.941C138.691 142.616 138.813 142.162 138.813 141.579C138.813 141.057 138.688 140.635 138.439 140.313C138.193 139.988 137.865 139.825 137.455 139.825C137.054 139.825 136.73 139.985 136.484 140.304C136.238 140.624 136.115 141.081 136.115 141.675ZM142.944 139.975C142.821 139.954 142.688 139.944 142.544 139.944C142.011 139.944 141.649 140.171 141.458 140.625V144H140.646V139.245H141.437L141.45 139.794C141.716 139.37 142.094 139.157 142.583 139.157C142.742 139.157 142.862 139.178 142.944 139.219V139.975Z" fill="#E3E3E3"/>
<path d="M12.5845 166.403C12.5845 165.741 12.6724 165.105 12.8481 164.496C13.0269 163.886 13.292 163.333 13.6436 162.834C13.9951 162.336 14.3599 161.985 14.7378 161.78L14.9048 162.316C14.4771 162.644 14.1255 163.145 13.8501 163.819C13.5776 164.493 13.4282 165.247 13.4019 166.082L13.3975 166.456C13.3975 167.586 13.604 168.568 14.0171 169.4C14.2661 169.898 14.562 170.288 14.9048 170.569L14.7378 171.065C14.3481 170.849 13.9761 170.485 13.6216 169.976C12.9302 168.979 12.5845 167.789 12.5845 166.403ZM17.5986 168.424C17.8887 168.424 18.1421 168.336 18.3589 168.161C18.5757 167.985 18.6958 167.765 18.7192 167.501H19.4883C19.4736 167.774 19.3799 168.033 19.207 168.279C19.0342 168.525 18.8027 168.722 18.5127 168.868C18.2256 169.015 17.9209 169.088 17.5986 169.088C16.9512 169.088 16.4355 168.873 16.0518 168.442C15.6709 168.008 15.4805 167.417 15.4805 166.667V166.53C15.4805 166.067 15.5654 165.656 15.7354 165.295C15.9053 164.935 16.1484 164.655 16.4648 164.456C16.7842 164.257 17.1606 164.157 17.5942 164.157C18.1274 164.157 18.5698 164.317 18.9214 164.636C19.2759 164.956 19.4648 165.37 19.4883 165.88H18.7192C18.6958 165.572 18.5786 165.32 18.3677 165.124C18.1597 164.925 17.9019 164.825 17.5942 164.825C17.1812 164.825 16.8604 164.975 16.6318 165.273C16.4062 165.569 16.2935 165.999 16.2935 166.561V166.715C16.2935 167.263 16.4062 167.685 16.6318 167.98C16.8574 168.276 17.1797 168.424 17.5986 168.424ZM23.1709 167.739C23.1709 167.519 23.0874 167.349 22.9204 167.229C22.7563 167.106 22.4678 167 22.0547 166.913C21.6445 166.825 21.3179 166.719 21.0747 166.596C20.8345 166.473 20.6558 166.327 20.5386 166.157C20.4243 165.987 20.3672 165.785 20.3672 165.55C20.3672 165.161 20.5312 164.831 20.8594 164.562C21.1904 164.292 21.6123 164.157 22.125 164.157C22.6641 164.157 23.1006 164.296 23.4346 164.575C23.7715 164.853 23.9399 165.209 23.9399 165.643H23.1226C23.1226 165.42 23.0273 165.228 22.8369 165.067C22.6494 164.906 22.4121 164.825 22.125 164.825C21.8291 164.825 21.5977 164.89 21.4307 165.019C21.2637 165.147 21.1802 165.316 21.1802 165.524C21.1802 165.72 21.2578 165.868 21.4131 165.968C21.5684 166.067 21.8481 166.163 22.2524 166.253C22.6597 166.344 22.9893 166.453 23.2412 166.579C23.4932 166.705 23.6792 166.857 23.7993 167.036C23.9224 167.211 23.9839 167.427 23.9839 167.682C23.9839 168.106 23.814 168.448 23.4741 168.706C23.1343 168.96 22.6934 169.088 22.1514 169.088C21.7705 169.088 21.4336 169.021 21.1406 168.886C20.8477 168.751 20.6177 168.563 20.4507 168.323C20.2866 168.08 20.2046 167.818 20.2046 167.537H21.0176C21.0322 167.809 21.1406 168.026 21.3428 168.187C21.5479 168.345 21.8174 168.424 22.1514 168.424C22.459 168.424 22.7051 168.363 22.8896 168.24C23.0771 168.114 23.1709 167.947 23.1709 167.739ZM26.6118 167.897L27.7896 164.245H28.6201L26.915 169H26.2954L24.5728 164.245H25.4033L26.6118 167.897ZM28.9014 170.274L28.4399 169.958C28.7153 169.574 28.8589 169.179 28.8706 168.771V168.038H29.666V168.675C29.666 168.971 29.5928 169.267 29.4463 169.562C29.3027 169.858 29.1211 170.096 28.9014 170.274ZM34.8999 169.088C34.2554 169.088 33.731 168.877 33.3267 168.455C32.9224 168.03 32.7202 167.463 32.7202 166.754V166.605C32.7202 166.133 32.8096 165.713 32.9883 165.344C33.1699 164.972 33.4219 164.682 33.7441 164.474C34.0693 164.263 34.4209 164.157 34.7988 164.157C35.417 164.157 35.8975 164.361 36.2402 164.768C36.583 165.175 36.7544 165.758 36.7544 166.517V166.855H33.5332C33.5449 167.324 33.6812 167.704 33.9419 167.994C34.2056 168.281 34.5396 168.424 34.9438 168.424C35.231 168.424 35.4741 168.366 35.6733 168.249C35.8726 168.131 36.0469 167.976 36.1963 167.783L36.6929 168.169C36.2944 168.782 35.6968 169.088 34.8999 169.088ZM34.7988 164.825C34.4707 164.825 34.1953 164.945 33.9727 165.186C33.75 165.423 33.6123 165.757 33.5596 166.188H35.9414V166.126C35.918 165.713 35.8066 165.394 35.6074 165.168C35.4082 164.939 35.1387 164.825 34.7988 164.825ZM37.5015 166.583C37.5015 165.854 37.6743 165.268 38.02 164.825C38.3657 164.38 38.8184 164.157 39.3779 164.157C39.9346 164.157 40.3755 164.348 40.7007 164.729V162.25H41.5137V169H40.7666L40.7271 168.49C40.4019 168.889 39.9492 169.088 39.3691 169.088C38.8184 169.088 38.3687 168.862 38.02 168.411C37.6743 167.96 37.5015 167.371 37.5015 166.645V166.583ZM38.3145 166.675C38.3145 167.214 38.4258 167.636 38.6484 167.941C38.8711 168.246 39.1787 168.398 39.5713 168.398C40.0869 168.398 40.4634 168.167 40.7007 167.704V165.52C40.4575 165.071 40.084 164.847 39.5801 164.847C39.1816 164.847 38.8711 165.001 38.6484 165.309C38.4258 165.616 38.3145 166.072 38.3145 166.675ZM43.6626 169H42.8496V162.25H43.6626V169ZM44.9414 170.274L44.48 169.958C44.7554 169.574 44.8989 169.179 44.9106 168.771V168.038H45.7061V168.675C45.7061 168.971 45.6328 169.267 45.4863 169.562C45.3428 169.858 45.1611 170.096 44.9414 170.274ZM50.9399 169.088C50.2954 169.088 49.771 168.877 49.3667 168.455C48.9624 168.03 48.7603 167.463 48.7603 166.754V166.605C48.7603 166.133 48.8496 165.713 49.0283 165.344C49.21 164.972 49.4619 164.682 49.7842 164.474C50.1094 164.263 50.4609 164.157 50.8389 164.157C51.457 164.157 51.9375 164.361 52.2803 164.768C52.623 165.175 52.7944 165.758 52.7944 166.517V166.855H49.5732C49.585 167.324 49.7212 167.704 49.9819 167.994C50.2456 168.281 50.5796 168.424 50.9839 168.424C51.271 168.424 51.5142 168.366 51.7134 168.249C51.9126 168.131 52.0869 167.976 52.2363 167.783L52.7329 168.169C52.3345 168.782 51.7368 169.088 50.9399 169.088ZM50.8389 164.825C50.5107 164.825 50.2354 164.945 50.0127 165.186C49.79 165.423 49.6523 165.757 49.5996 166.188H51.9814V166.126C51.958 165.713 51.8467 165.394 51.6475 165.168C51.4482 164.939 51.1787 164.825 50.8389 164.825ZM54.8423 163.094V164.245H55.73V164.874H54.8423V167.822C54.8423 168.013 54.8818 168.156 54.9609 168.253C55.04 168.347 55.1748 168.394 55.3652 168.394C55.459 168.394 55.5879 168.376 55.752 168.341V169C55.5381 169.059 55.3301 169.088 55.1279 169.088C54.7646 169.088 54.4907 168.978 54.3062 168.758C54.1216 168.539 54.0293 168.227 54.0293 167.822V164.874H53.1636V164.245H54.0293V163.094H54.8423ZM58.5908 168.424C58.8809 168.424 59.1343 168.336 59.3511 168.161C59.5679 167.985 59.688 167.765 59.7114 167.501H60.4805C60.4658 167.774 60.3721 168.033 60.1992 168.279C60.0264 168.525 59.7949 168.722 59.5049 168.868C59.2178 169.015 58.9131 169.088 58.5908 169.088C57.9434 169.088 57.4277 168.873 57.0439 168.442C56.6631 168.008 56.4727 167.417 56.4727 166.667V166.53C56.4727 166.067 56.5576 165.656 56.7275 165.295C56.8975 164.935 57.1406 164.655 57.457 164.456C57.7764 164.257 58.1528 164.157 58.5864 164.157C59.1196 164.157 59.562 164.317 59.9136 164.636C60.2681 164.956 60.457 165.37 60.4805 165.88H59.7114C59.688 165.572 59.5708 165.32 59.3599 165.124C59.1519 164.925 58.894 164.825 58.5864 164.825C58.1733 164.825 57.8525 164.975 57.624 165.273C57.3984 165.569 57.2856 165.999 57.2856 166.561V166.715C57.2856 167.263 57.3984 167.685 57.624 167.98C57.8496 168.276 58.1719 168.424 58.5908 168.424ZM61.4121 168.574C61.4121 168.433 61.4531 168.316 61.5352 168.222C61.6201 168.128 61.7461 168.082 61.9131 168.082C62.0801 168.082 62.2061 168.128 62.291 168.222C62.3789 168.316 62.4229 168.433 62.4229 168.574C62.4229 168.708 62.3789 168.821 62.291 168.912C62.2061 169.003 62.0801 169.048 61.9131 169.048C61.7461 169.048 61.6201 169.003 61.5352 168.912C61.4531 168.821 61.4121 168.708 61.4121 168.574ZM63.7852 168.574C63.7852 168.433 63.8262 168.316 63.9082 168.222C63.9932 168.128 64.1191 168.082 64.2861 168.082C64.4531 168.082 64.5791 168.128 64.6641 168.222C64.752 168.316 64.7959 168.433 64.7959 168.574C64.7959 168.708 64.752 168.821 64.6641 168.912C64.5791 169.003 64.4531 169.048 64.2861 169.048C64.1191 169.048 63.9932 169.003 63.9082 168.912C63.8262 168.821 63.7852 168.708 63.7852 168.574ZM66.1582 168.574C66.1582 168.433 66.1992 168.316 66.2812 168.222C66.3662 168.128 66.4922 168.082 66.6592 168.082C66.8262 168.082 66.9521 168.128 67.0371 168.222C67.125 168.316 67.1689 168.433 67.1689 168.574C67.1689 168.708 67.125 168.821 67.0371 168.912C66.9521 169.003 66.8262 169.048 66.6592 169.048C66.4922 169.048 66.3662 169.003 66.2812 168.912C66.1992 168.821 66.1582 168.708 66.1582 168.574ZM70.3901 166.447C70.3901 167.1 70.3037 167.727 70.1309 168.328C69.9609 168.925 69.6987 169.478 69.3442 169.984C68.9927 170.491 68.6235 170.852 68.2368 171.065L68.0654 170.569C68.5166 170.223 68.8784 169.687 69.1509 168.96C69.4263 168.231 69.5669 167.422 69.5728 166.535V166.394C69.5728 165.779 69.5083 165.208 69.3794 164.68C69.2505 164.15 69.0703 163.675 68.8389 163.256C68.6104 162.837 68.3525 162.511 68.0654 162.276L68.2368 161.78C68.6235 161.994 68.9912 162.351 69.3398 162.852C69.6914 163.353 69.9536 163.905 70.1265 164.509C70.3022 165.112 70.3901 165.758 70.3901 166.447Z" fill="#B4B4B4"/>
<path d="M120.615 166.416C120.615 165.777 120.697 165.158 120.861 164.557C121.025 163.954 121.266 163.403 121.582 162.905C121.898 162.404 122.238 162.045 122.602 161.828L122.729 162.184C122.536 162.322 122.344 162.522 122.153 162.786C121.963 163.05 121.793 163.363 121.644 163.727C121.494 164.09 121.373 164.499 121.279 164.953C121.188 165.404 121.143 165.917 121.143 166.491C121.143 167.103 121.211 167.692 121.349 168.257C121.49 168.823 121.682 169.321 121.925 169.751C122.168 170.185 122.436 170.51 122.729 170.727L122.602 171.065C122.229 170.843 121.885 170.482 121.569 169.984C121.252 169.489 121.014 168.944 120.853 168.35C120.694 167.752 120.615 167.107 120.615 166.416ZM124.039 164.245L124.056 165.019C124.232 164.731 124.452 164.516 124.715 164.373C124.979 164.229 125.272 164.157 125.594 164.157C126.344 164.157 126.82 164.465 127.022 165.08C127.192 164.784 127.419 164.557 127.704 164.399C127.988 164.238 128.301 164.157 128.644 164.157C129.664 164.157 130.184 164.714 130.204 165.827V169H129.677V165.867C129.674 165.442 129.582 165.127 129.4 164.922C129.221 164.717 128.928 164.614 128.521 164.614C128.143 164.62 127.824 164.743 127.563 164.983C127.302 165.221 127.157 165.511 127.128 165.854V169H126.601V165.827C126.598 165.42 126.501 165.117 126.311 164.917C126.123 164.715 125.833 164.614 125.44 164.614C125.109 164.614 124.825 164.709 124.588 164.9C124.351 165.087 124.175 165.367 124.061 165.739V169H123.533V164.245H124.039ZM135.363 166.671C135.363 167.412 135.199 168.001 134.871 168.438C134.543 168.871 134.104 169.088 133.553 169.088C132.902 169.088 132.404 168.859 132.059 168.402V170.828H131.536V164.245H132.023L132.05 164.917C132.393 164.411 132.889 164.157 133.54 164.157C134.108 164.157 134.553 164.373 134.875 164.803C135.201 165.234 135.363 165.832 135.363 166.596V166.671ZM134.836 166.579C134.836 165.972 134.711 165.493 134.462 165.142C134.213 164.79 133.866 164.614 133.421 164.614C133.099 164.614 132.822 164.692 132.59 164.847C132.359 165.002 132.182 165.228 132.059 165.524V167.805C132.185 168.077 132.365 168.285 132.599 168.429C132.833 168.572 133.11 168.644 133.43 168.644C133.872 168.644 134.216 168.468 134.462 168.117C134.711 167.762 134.836 167.25 134.836 166.579ZM139.679 166.939H140.676V167.383H139.679V169H139.151V167.383H136.141V167.084L139.103 162.602H139.679V166.939ZM136.787 166.939H139.151V163.283L138.918 163.687L136.787 166.939ZM141.415 170.195L141.103 169.967C141.369 169.609 141.507 169.239 141.516 168.855V168.174H142.03V168.723C142.03 169.333 141.825 169.823 141.415 170.195ZM145.915 164.245L145.932 165.019C146.108 164.731 146.328 164.516 146.591 164.373C146.855 164.229 147.148 164.157 147.47 164.157C148.22 164.157 148.696 164.465 148.898 165.08C149.068 164.784 149.295 164.557 149.58 164.399C149.864 164.238 150.177 164.157 150.52 164.157C151.54 164.157 152.06 164.714 152.08 165.827V169H151.553V165.867C151.55 165.442 151.458 165.127 151.276 164.922C151.097 164.717 150.804 164.614 150.397 164.614C150.019 164.62 149.7 164.743 149.439 164.983C149.178 165.221 149.033 165.511 149.004 165.854V169H148.477V165.827C148.474 165.42 148.377 165.117 148.187 164.917C147.999 164.715 147.709 164.614 147.316 164.614C146.985 164.614 146.701 164.709 146.464 164.9C146.227 165.087 146.051 165.367 145.937 165.739V169H145.409V164.245H145.915ZM153.126 166.552C153.126 166.095 153.214 165.684 153.39 165.317C153.568 164.951 153.819 164.667 154.141 164.465C154.466 164.26 154.834 164.157 155.244 164.157C155.877 164.157 156.39 164.38 156.782 164.825C157.175 165.268 157.371 165.855 157.371 166.587V166.697C157.371 167.157 157.282 167.572 157.103 167.941C156.927 168.307 156.678 168.59 156.356 168.789C156.034 168.988 155.666 169.088 155.253 169.088C154.623 169.088 154.11 168.867 153.715 168.424C153.322 167.979 153.126 167.39 153.126 166.658V166.552ZM153.653 166.697C153.653 167.266 153.8 167.733 154.093 168.099C154.389 168.462 154.775 168.644 155.253 168.644C155.728 168.644 156.111 168.462 156.404 168.099C156.7 167.733 156.848 167.251 156.848 166.653V166.552C156.848 166.189 156.781 165.856 156.646 165.555C156.511 165.253 156.322 165.02 156.079 164.856C155.836 164.689 155.558 164.605 155.244 164.605C154.775 164.605 154.393 164.79 154.097 165.159C153.801 165.525 153.653 166.006 153.653 166.601V166.697ZM159.872 168.275L161.317 164.245H161.858L160.083 169H159.656L157.872 164.245H158.413L159.872 168.275ZM162.139 170.195L161.827 169.967C162.094 169.609 162.231 169.239 162.24 168.855V168.174H162.754V168.723C162.754 169.333 162.549 169.823 162.139 170.195ZM169.162 169C169.109 168.851 169.075 168.629 169.061 168.336C168.876 168.577 168.64 168.763 168.353 168.895C168.069 169.023 167.767 169.088 167.448 169.088C166.991 169.088 166.62 168.96 166.336 168.706C166.055 168.451 165.914 168.128 165.914 167.739C165.914 167.276 166.106 166.91 166.49 166.64C166.876 166.371 167.414 166.236 168.103 166.236H169.056V165.695C169.056 165.355 168.951 165.089 168.74 164.896C168.532 164.699 168.227 164.601 167.826 164.601C167.459 164.601 167.156 164.695 166.916 164.882C166.676 165.07 166.556 165.295 166.556 165.559L166.028 165.555C166.028 165.177 166.204 164.85 166.556 164.575C166.907 164.296 167.339 164.157 167.852 164.157C168.382 164.157 168.8 164.291 169.104 164.557C169.412 164.821 169.57 165.19 169.579 165.665V167.915C169.579 168.375 169.627 168.719 169.724 168.947V169H169.162ZM167.509 168.622C167.861 168.622 168.174 168.537 168.45 168.367C168.728 168.197 168.93 167.97 169.056 167.686V166.64H168.116C167.591 166.646 167.181 166.743 166.885 166.93C166.589 167.115 166.441 167.37 166.441 167.695C166.441 167.961 166.54 168.183 166.736 168.358C166.935 168.534 167.193 168.622 167.509 168.622ZM172.396 168.275L173.842 164.245H174.382L172.607 169H172.181L170.396 164.245H170.937L172.396 168.275ZM175.837 169H175.31V164.245H175.837V169ZM175.217 162.87C175.217 162.77 175.25 162.687 175.314 162.619C175.378 162.549 175.466 162.514 175.578 162.514C175.689 162.514 175.777 162.549 175.841 162.619C175.909 162.687 175.942 162.77 175.942 162.87C175.942 162.969 175.909 163.053 175.841 163.12C175.777 163.188 175.689 163.221 175.578 163.221C175.466 163.221 175.378 163.188 175.314 163.12C175.25 163.053 175.217 162.969 175.217 162.87ZM177.16 170.195L176.848 169.967C177.114 169.609 177.252 169.239 177.261 168.855V168.174H177.775V168.723C177.775 169.333 177.57 169.823 177.16 170.195ZM183.022 169.088C182.618 169.088 182.251 168.988 181.923 168.789C181.598 168.59 181.345 168.313 181.163 167.958C180.981 167.601 180.891 167.201 180.891 166.759V166.57C180.891 166.113 180.979 165.701 181.154 165.335C181.333 164.969 181.581 164.682 181.897 164.474C182.213 164.263 182.556 164.157 182.925 164.157C183.502 164.157 183.959 164.355 184.296 164.75C184.636 165.143 184.806 165.681 184.806 166.363V166.658H181.414V166.759C181.414 167.298 181.567 167.748 181.875 168.108C182.186 168.465 182.575 168.644 183.044 168.644C183.325 168.644 183.573 168.593 183.787 168.49C184.003 168.388 184.2 168.224 184.375 167.998L184.705 168.249C184.318 168.808 183.757 169.088 183.022 169.088ZM182.925 164.605C182.53 164.605 182.196 164.75 181.923 165.041C181.654 165.331 181.49 165.72 181.431 166.209H184.283V166.152C184.269 165.695 184.138 165.323 183.892 165.036C183.646 164.749 183.324 164.605 182.925 164.605ZM186.647 163.028V164.245H187.632V164.676H186.647V167.844C186.647 168.108 186.694 168.304 186.788 168.433C186.885 168.562 187.044 168.626 187.267 168.626C187.355 168.626 187.497 168.612 187.693 168.583L187.715 169.013C187.578 169.063 187.39 169.088 187.153 169.088C186.792 169.088 186.53 168.984 186.366 168.776C186.202 168.565 186.12 168.256 186.12 167.849V164.676H185.246V164.245H186.12V163.028H186.647ZM190.479 168.644C190.846 168.644 191.152 168.542 191.398 168.336C191.647 168.128 191.782 167.86 191.802 167.532H192.308C192.293 167.822 192.202 168.087 192.035 168.328C191.868 168.565 191.646 168.751 191.367 168.886C191.092 169.021 190.796 169.088 190.479 169.088C189.855 169.088 189.36 168.871 188.994 168.438C188.631 168.004 188.449 167.421 188.449 166.688V166.53C188.449 166.062 188.531 165.647 188.695 165.287C188.859 164.926 189.094 164.648 189.398 164.452C189.706 164.255 190.065 164.157 190.475 164.157C190.997 164.157 191.426 164.312 191.763 164.623C192.103 164.934 192.284 165.342 192.308 165.849H191.802C191.779 165.477 191.644 165.177 191.398 164.948C191.155 164.72 190.847 164.605 190.475 164.605C190 164.605 189.631 164.777 189.368 165.12C189.107 165.462 188.977 165.943 188.977 166.561V166.715C188.977 167.321 189.107 167.794 189.368 168.134C189.631 168.474 190.002 168.644 190.479 168.644ZM193.314 168.684C193.314 168.581 193.346 168.495 193.411 168.424C193.478 168.351 193.57 168.314 193.688 168.314C193.805 168.314 193.897 168.351 193.964 168.424C194.032 168.495 194.065 168.581 194.065 168.684C194.065 168.786 194.032 168.871 193.964 168.938C193.897 169.003 193.805 169.035 193.688 169.035C193.57 169.035 193.478 169.003 193.411 168.938C193.346 168.871 193.314 168.786 193.314 168.684ZM195.467 168.684C195.467 168.581 195.5 168.495 195.564 168.424C195.631 168.351 195.724 168.314 195.841 168.314C195.958 168.314 196.05 168.351 196.118 168.424C196.185 168.495 196.219 168.581 196.219 168.684C196.219 168.786 196.185 168.871 196.118 168.938C196.05 169.003 195.958 169.035 195.841 169.035C195.724 169.035 195.631 169.003 195.564 168.938C195.5 168.871 195.467 168.786 195.467 168.684ZM197.621 168.684C197.621 168.581 197.653 168.495 197.717 168.424C197.785 168.351 197.877 168.314 197.994 168.314C198.111 168.314 198.204 168.351 198.271 168.424C198.338 168.495 198.372 168.581 198.372 168.684C198.372 168.786 198.338 168.871 198.271 168.938C198.204 169.003 198.111 169.035 197.994 169.035C197.877 169.035 197.785 169.003 197.717 168.938C197.653 168.871 197.621 168.786 197.621 168.684ZM201.396 166.482C201.396 167.126 201.315 167.748 201.154 168.345C200.996 168.94 200.76 169.485 200.446 169.98C200.133 170.475 199.787 170.837 199.409 171.065L199.282 170.727C199.569 170.522 199.834 170.204 200.077 169.773C200.323 169.343 200.517 168.842 200.657 168.271C200.798 167.696 200.868 167.074 200.868 166.403C200.868 165.796 200.798 165.212 200.657 164.649C200.517 164.084 200.322 163.58 200.073 163.138C199.827 162.692 199.563 162.369 199.282 162.167L199.409 161.828C199.778 162.054 200.12 162.414 200.433 162.909C200.747 163.404 200.985 163.954 201.149 164.557C201.313 165.161 201.396 165.802 201.396 166.482Z" fill="#B4B4B4"/>
<path d="M265.615 134.416C265.615 133.777 265.697 133.158 265.861 132.557C266.025 131.954 266.266 131.403 266.582 130.905C266.898 130.404 267.238 130.045 267.602 129.828L267.729 130.184C267.536 130.322 267.344 130.522 267.153 130.786C266.963 131.05 266.793 131.363 266.644 131.727C266.494 132.09 266.373 132.499 266.279 132.953C266.188 133.404 266.143 133.917 266.143 134.491C266.143 135.103 266.211 135.692 266.349 136.257C266.49 136.823 266.682 137.321 266.925 137.751C267.168 138.185 267.436 138.51 267.729 138.727L267.602 139.065C267.229 138.843 266.885 138.482 266.569 137.984C266.252 137.489 266.014 136.944 265.853 136.35C265.694 135.752 265.615 135.107 265.615 134.416ZM270.317 136.644C270.684 136.644 270.99 136.542 271.236 136.336C271.485 136.128 271.62 135.86 271.64 135.532H272.146C272.131 135.822 272.04 136.087 271.873 136.328C271.706 136.565 271.483 136.751 271.205 136.886C270.93 137.021 270.634 137.088 270.317 137.088C269.693 137.088 269.198 136.871 268.832 136.438C268.469 136.004 268.287 135.421 268.287 134.688V134.53C268.287 134.062 268.369 133.647 268.533 133.287C268.697 132.926 268.932 132.648 269.236 132.452C269.544 132.255 269.903 132.157 270.313 132.157C270.834 132.157 271.264 132.312 271.601 132.623C271.94 132.934 272.122 133.342 272.146 133.849H271.64C271.617 133.477 271.482 133.177 271.236 132.948C270.993 132.72 270.685 132.605 270.313 132.605C269.838 132.605 269.469 132.777 269.206 133.12C268.945 133.462 268.814 133.943 268.814 134.561V134.715C268.814 135.321 268.945 135.794 269.206 136.134C269.469 136.474 269.84 136.644 270.317 136.644ZM273.789 137H273.262V130.25H273.789V137ZM275.811 137H275.283V132.245H275.811V137ZM275.191 130.87C275.191 130.77 275.223 130.687 275.288 130.619C275.352 130.549 275.44 130.514 275.551 130.514C275.663 130.514 275.75 130.549 275.815 130.619C275.882 130.687 275.916 130.77 275.916 130.87C275.916 130.969 275.882 131.053 275.815 131.12C275.75 131.188 275.663 131.221 275.551 131.221C275.44 131.221 275.352 131.188 275.288 131.12C275.223 131.053 275.191 130.969 275.191 130.87ZM281.066 134.671C281.066 135.412 280.902 136.001 280.574 136.438C280.246 136.871 279.807 137.088 279.256 137.088C278.605 137.088 278.107 136.859 277.762 136.402V138.828H277.239V132.245H277.727L277.753 132.917C278.096 132.411 278.592 132.157 279.243 132.157C279.811 132.157 280.256 132.373 280.579 132.803C280.904 133.234 281.066 133.832 281.066 134.596V134.671ZM280.539 134.579C280.539 133.972 280.415 133.493 280.166 133.142C279.917 132.79 279.569 132.614 279.124 132.614C278.802 132.614 278.525 132.692 278.293 132.847C278.062 133.002 277.885 133.228 277.762 133.524V135.805C277.888 136.077 278.068 136.285 278.302 136.429C278.537 136.572 278.813 136.644 279.133 136.644C279.575 136.644 279.919 136.468 280.166 136.117C280.415 135.762 280.539 135.25 280.539 134.579ZM284.6 137H284.072V131.234L282.332 131.88V131.388L284.512 130.58H284.6V137ZM287.179 136.684C287.179 136.581 287.211 136.495 287.276 136.424C287.343 136.351 287.436 136.314 287.553 136.314C287.67 136.314 287.762 136.351 287.83 136.424C287.897 136.495 287.931 136.581 287.931 136.684C287.931 136.786 287.897 136.871 287.83 136.938C287.762 137.003 287.67 137.035 287.553 137.035C287.436 137.035 287.343 137.003 287.276 136.938C287.211 136.871 287.179 136.786 287.179 136.684ZM289.86 132.245L289.877 133.019C290.053 132.731 290.273 132.516 290.537 132.373C290.8 132.229 291.093 132.157 291.416 132.157C292.166 132.157 292.642 132.465 292.844 133.08C293.014 132.784 293.241 132.557 293.525 132.399C293.809 132.238 294.123 132.157 294.465 132.157C295.485 132.157 296.005 132.714 296.025 133.827V137H295.498V133.867C295.495 133.442 295.403 133.127 295.221 132.922C295.042 132.717 294.75 132.614 294.342 132.614C293.964 132.62 293.645 132.743 293.384 132.983C293.124 133.221 292.979 133.511 292.949 133.854V137H292.422V133.827C292.419 133.42 292.322 133.117 292.132 132.917C291.944 132.715 291.654 132.614 291.262 132.614C290.931 132.614 290.646 132.709 290.409 132.9C290.172 133.087 289.996 133.367 289.882 133.739V137H289.354V132.245H289.86ZM301.185 134.671C301.185 135.412 301.021 136.001 300.692 136.438C300.364 136.871 299.925 137.088 299.374 137.088C298.724 137.088 298.226 136.859 297.88 136.402V138.828H297.357V132.245H297.845L297.871 132.917C298.214 132.411 298.71 132.157 299.361 132.157C299.929 132.157 300.375 132.373 300.697 132.803C301.022 133.234 301.185 133.832 301.185 134.596V134.671ZM300.657 134.579C300.657 133.972 300.533 133.493 300.284 133.142C300.035 132.79 299.688 132.614 299.242 132.614C298.92 132.614 298.643 132.692 298.412 132.847C298.18 133.002 298.003 133.228 297.88 133.524V135.805C298.006 136.077 298.186 136.285 298.42 136.429C298.655 136.572 298.932 136.644 299.251 136.644C299.693 136.644 300.038 136.468 300.284 136.117C300.533 135.762 300.657 135.25 300.657 134.579ZM305.5 134.939H306.498V135.383H305.5V137H304.973V135.383H301.962V135.084L304.924 130.602H305.5V134.939ZM302.608 134.939H304.973V131.283L304.74 131.687L302.608 134.939ZM307.236 138.195L306.924 137.967C307.19 137.609 307.328 137.239 307.337 136.855V136.174H307.851V136.723C307.851 137.333 307.646 137.823 307.236 138.195ZM313.015 136.644C313.381 136.644 313.687 136.542 313.933 136.336C314.182 136.128 314.317 135.86 314.337 135.532H314.843C314.828 135.822 314.737 136.087 314.57 136.328C314.403 136.565 314.181 136.751 313.902 136.886C313.627 137.021 313.331 137.088 313.015 137.088C312.391 137.088 311.896 136.871 311.529 136.438C311.166 136.004 310.984 135.421 310.984 134.688V134.53C310.984 134.062 311.066 133.647 311.23 133.287C311.395 132.926 311.629 132.648 311.934 132.452C312.241 132.255 312.6 132.157 313.01 132.157C313.532 132.157 313.961 132.312 314.298 132.623C314.638 132.934 314.819 133.342 314.843 133.849H314.337C314.314 133.477 314.179 133.177 313.933 132.948C313.69 132.72 313.382 132.605 313.01 132.605C312.536 132.605 312.167 132.777 311.903 133.12C311.642 133.462 311.512 133.943 311.512 134.561V134.715C311.512 135.321 311.642 135.794 311.903 136.134C312.167 136.474 312.537 136.644 313.015 136.644ZM316.486 137H315.959V130.25H316.486V137ZM318.508 137H317.98V132.245H318.508V137ZM317.888 130.87C317.888 130.77 317.92 130.687 317.985 130.619C318.049 130.549 318.137 130.514 318.249 130.514C318.36 130.514 318.448 130.549 318.512 130.619C318.58 130.687 318.613 130.77 318.613 130.87C318.613 130.969 318.58 131.053 318.512 131.12C318.448 131.188 318.36 131.221 318.249 131.221C318.137 131.221 318.049 131.188 317.985 131.12C317.92 131.053 317.888 130.969 317.888 130.87ZM323.764 134.671C323.764 135.412 323.6 136.001 323.271 136.438C322.943 136.871 322.504 137.088 321.953 137.088C321.303 137.088 320.805 136.859 320.459 136.402V138.828H319.936V132.245H320.424L320.45 132.917C320.793 132.411 321.29 132.157 321.94 132.157C322.508 132.157 322.954 132.373 323.276 132.803C323.601 133.234 323.764 133.832 323.764 134.596V134.671ZM323.236 134.579C323.236 133.972 323.112 133.493 322.863 133.142C322.614 132.79 322.267 132.614 321.821 132.614C321.499 132.614 321.222 132.692 320.991 132.847C320.759 133.002 320.582 133.228 320.459 133.524V135.805C320.585 136.077 320.765 136.285 321 136.429C321.234 136.572 321.511 136.644 321.83 136.644C322.272 136.644 322.617 136.468 322.863 136.117C323.112 135.762 323.236 135.25 323.236 134.579ZM328.857 137H324.849V136.596L327.042 134.108C327.405 133.689 327.657 133.344 327.798 133.071C327.938 132.799 328.009 132.534 328.009 132.276C328.009 131.872 327.89 131.552 327.653 131.318C327.416 131.081 327.089 130.962 326.673 130.962C326.242 130.962 325.894 131.1 325.627 131.375C325.363 131.65 325.231 132.008 325.231 132.447H324.708C324.708 132.087 324.789 131.759 324.95 131.463C325.114 131.167 325.346 130.936 325.645 130.769C325.946 130.599 326.289 130.514 326.673 130.514C327.259 130.514 327.716 130.667 328.044 130.975C328.375 131.283 328.541 131.702 328.541 132.232C328.541 132.531 328.447 132.857 328.259 133.212C328.075 133.566 327.748 134.009 327.279 134.539L325.495 136.556H328.857V137ZM329.876 136.684C329.876 136.581 329.909 136.495 329.973 136.424C330.041 136.351 330.133 136.314 330.25 136.314C330.367 136.314 330.459 136.351 330.527 136.424C330.594 136.495 330.628 136.581 330.628 136.684C330.628 136.786 330.594 136.871 330.527 136.938C330.459 137.003 330.367 137.035 330.25 137.035C330.133 137.035 330.041 137.003 329.973 136.938C329.909 136.871 329.876 136.786 329.876 136.684ZM332.557 132.245L332.575 133.019C332.75 132.731 332.97 132.516 333.234 132.373C333.498 132.229 333.791 132.157 334.113 132.157C334.863 132.157 335.339 132.465 335.541 133.08C335.711 132.784 335.938 132.557 336.222 132.399C336.506 132.238 336.82 132.157 337.163 132.157C338.182 132.157 338.702 132.714 338.723 133.827V137H338.195V133.867C338.192 133.442 338.1 133.127 337.918 132.922C337.74 132.717 337.447 132.614 337.04 132.614C336.662 132.62 336.342 132.743 336.082 132.983C335.821 133.221 335.676 133.511 335.646 133.854V137H335.119V133.827C335.116 133.42 335.02 133.117 334.829 132.917C334.642 132.715 334.352 132.614 333.959 132.614C333.628 132.614 333.344 132.709 333.106 132.9C332.869 133.087 332.693 133.367 332.579 133.739V137H332.052V132.245H332.557ZM343.882 134.671C343.882 135.412 343.718 136.001 343.39 136.438C343.062 136.871 342.622 137.088 342.071 137.088C341.421 137.088 340.923 136.859 340.577 136.402V138.828H340.054V132.245H340.542L340.568 132.917C340.911 132.411 341.408 132.157 342.058 132.157C342.626 132.157 343.072 132.373 343.394 132.803C343.719 133.234 343.882 133.832 343.882 134.596V134.671ZM343.354 134.579C343.354 133.972 343.23 133.493 342.981 133.142C342.732 132.79 342.385 132.614 341.939 132.614C341.617 132.614 341.34 132.692 341.109 132.847C340.877 133.002 340.7 133.228 340.577 133.524V135.805C340.703 136.077 340.883 136.285 341.118 136.429C341.352 136.572 341.629 136.644 341.948 136.644C342.391 136.644 342.735 136.468 342.981 136.117C343.23 135.762 343.354 135.25 343.354 134.579ZM348.197 134.939H349.195V135.383H348.197V137H347.67V135.383H344.66V135.084L347.622 130.602H348.197V134.939ZM345.306 134.939H347.67V131.283L347.437 131.687L345.306 134.939ZM349.933 138.195L349.621 137.967C349.888 137.609 350.025 137.239 350.034 136.855V136.174H350.548V136.723C350.548 137.333 350.343 137.823 349.933 138.195ZM355.795 137.088C355.391 137.088 355.025 136.988 354.697 136.789C354.372 136.59 354.118 136.313 353.937 135.958C353.755 135.601 353.664 135.201 353.664 134.759V134.57C353.664 134.113 353.752 133.701 353.928 133.335C354.106 132.969 354.354 132.682 354.67 132.474C354.987 132.263 355.33 132.157 355.699 132.157C356.276 132.157 356.733 132.355 357.07 132.75C357.41 133.143 357.58 133.681 357.58 134.363V134.658H354.187V134.759C354.187 135.298 354.341 135.748 354.648 136.108C354.959 136.465 355.349 136.644 355.817 136.644C356.099 136.644 356.346 136.593 356.56 136.49C356.777 136.388 356.973 136.224 357.149 135.998L357.479 136.249C357.092 136.808 356.531 137.088 355.795 137.088ZM355.699 132.605C355.303 132.605 354.969 132.75 354.697 133.041C354.427 133.331 354.263 133.72 354.205 134.209H357.057V134.152C357.042 133.695 356.912 133.323 356.666 133.036C356.419 132.749 356.097 132.605 355.699 132.605ZM359.421 131.028V132.245H360.405V132.676H359.421V135.844C359.421 136.108 359.468 136.304 359.562 136.433C359.658 136.562 359.818 136.626 360.041 136.626C360.128 136.626 360.271 136.612 360.467 136.583L360.489 137.013C360.351 137.063 360.164 137.088 359.926 137.088C359.566 137.088 359.304 136.984 359.14 136.776C358.976 136.565 358.894 136.256 358.894 135.849V132.676H358.019V132.245H358.894V131.028H359.421ZM363.253 136.644C363.619 136.644 363.925 136.542 364.171 136.336C364.42 136.128 364.555 135.86 364.576 135.532H365.081C365.066 135.822 364.976 136.087 364.809 136.328C364.642 136.565 364.419 136.751 364.141 136.886C363.865 137.021 363.569 137.088 363.253 137.088C362.629 137.088 362.134 136.871 361.768 136.438C361.404 136.004 361.223 135.421 361.223 134.688V134.53C361.223 134.062 361.305 133.647 361.469 133.287C361.633 132.926 361.867 132.648 362.172 132.452C362.479 132.255 362.838 132.157 363.249 132.157C363.77 132.157 364.199 132.312 364.536 132.623C364.876 132.934 365.058 133.342 365.081 133.849H364.576C364.552 133.477 364.417 133.177 364.171 132.948C363.928 132.72 363.621 132.605 363.249 132.605C362.774 132.605 362.405 132.777 362.141 133.12C361.88 133.462 361.75 133.943 361.75 134.561V134.715C361.75 135.321 361.88 135.794 362.141 136.134C362.405 136.474 362.775 136.644 363.253 136.644ZM366.087 136.684C366.087 136.581 366.12 136.495 366.184 136.424C366.251 136.351 366.344 136.314 366.461 136.314C366.578 136.314 366.67 136.351 366.738 136.424C366.805 136.495 366.839 136.581 366.839 136.684C366.839 136.786 366.805 136.871 366.738 136.938C366.67 137.003 366.578 137.035 366.461 137.035C366.344 137.035 366.251 137.003 366.184 136.938C366.12 136.871 366.087 136.786 366.087 136.684ZM368.241 136.684C368.241 136.581 368.273 136.495 368.337 136.424C368.405 136.351 368.497 136.314 368.614 136.314C368.731 136.314 368.824 136.351 368.891 136.424C368.958 136.495 368.992 136.581 368.992 136.684C368.992 136.786 368.958 136.871 368.891 136.938C368.824 137.003 368.731 137.035 368.614 137.035C368.497 137.035 368.405 137.003 368.337 136.938C368.273 136.871 368.241 136.786 368.241 136.684ZM370.394 136.684C370.394 136.581 370.426 136.495 370.491 136.424C370.558 136.351 370.65 136.314 370.768 136.314C370.885 136.314 370.977 136.351 371.044 136.424C371.112 136.495 371.146 136.581 371.146 136.684C371.146 136.786 371.112 136.871 371.044 136.938C370.977 137.003 370.885 137.035 370.768 137.035C370.65 137.035 370.558 137.003 370.491 136.938C370.426 136.871 370.394 136.786 370.394 136.684ZM374.169 134.482C374.169 135.126 374.088 135.748 373.927 136.345C373.769 136.94 373.533 137.485 373.22 137.98C372.906 138.475 372.561 138.837 372.183 139.065L372.055 138.727C372.342 138.522 372.607 138.204 372.851 137.773C373.097 137.343 373.29 136.842 373.431 136.271C373.571 135.696 373.642 135.074 373.642 134.403C373.642 133.796 373.571 133.212 373.431 132.649C373.29 132.084 373.095 131.58 372.846 131.138C372.6 130.692 372.336 130.369 372.055 130.167L372.183 129.828C372.552 130.054 372.893 130.414 373.207 130.909C373.52 131.404 373.759 131.954 373.923 132.557C374.087 133.161 374.169 133.802 374.169 134.482Z" fill="#B4B4B4"/>
<path d="M123.914 111.885L125.848 105.469H127.805L124.834 114H123L120.041 105.469H121.992L123.914 111.885ZM130.289 114H128.59V107.66H130.289V114ZM128.49 106.02C128.49 105.766 128.574 105.557 128.742 105.393C128.914 105.229 129.146 105.146 129.439 105.146C129.729 105.146 129.959 105.229 130.131 105.393C130.303 105.557 130.389 105.766 130.389 106.02C130.389 106.277 130.301 106.488 130.125 106.652C129.953 106.816 129.725 106.898 129.439 106.898C129.154 106.898 128.924 106.816 128.748 106.652C128.576 106.488 128.49 106.277 128.49 106.02ZM131.426 110.783C131.426 109.795 131.646 109.008 132.088 108.422C132.533 107.836 133.141 107.543 133.91 107.543C134.527 107.543 135.037 107.773 135.439 108.234V105H137.139V114H135.609L135.527 113.326C135.105 113.854 134.562 114.117 133.898 114.117C133.152 114.117 132.553 113.824 132.1 113.238C131.65 112.648 131.426 111.83 131.426 110.783ZM133.119 110.906C133.119 111.5 133.223 111.955 133.43 112.271C133.637 112.588 133.938 112.746 134.332 112.746C134.855 112.746 135.225 112.525 135.439 112.084V109.582C135.229 109.141 134.863 108.92 134.344 108.92C133.527 108.92 133.119 109.582 133.119 110.906ZM141.369 114.117C140.439 114.117 139.682 113.832 139.096 113.262C138.514 112.691 138.223 111.932 138.223 110.982V110.818C138.223 110.182 138.346 109.613 138.592 109.113C138.838 108.609 139.186 108.223 139.635 107.953C140.088 107.68 140.604 107.543 141.182 107.543C142.049 107.543 142.73 107.816 143.227 108.363C143.727 108.91 143.977 109.686 143.977 110.689V111.381H139.939C139.994 111.795 140.158 112.127 140.432 112.377C140.709 112.627 141.059 112.752 141.48 112.752C142.133 112.752 142.643 112.516 143.01 112.043L143.842 112.975C143.588 113.334 143.244 113.615 142.811 113.818C142.377 114.018 141.896 114.117 141.369 114.117ZM141.176 108.914C140.84 108.914 140.566 109.027 140.355 109.254C140.148 109.48 140.016 109.805 139.957 110.227H142.312V110.092C142.305 109.717 142.203 109.428 142.008 109.225C141.812 109.018 141.535 108.914 141.176 108.914ZM144.68 110.771C144.68 110.143 144.801 109.582 145.043 109.09C145.285 108.598 145.633 108.217 146.086 107.947C146.543 107.678 147.072 107.543 147.674 107.543C148.529 107.543 149.227 107.805 149.766 108.328C150.309 108.852 150.611 109.562 150.674 110.461L150.686 110.895C150.686 111.867 150.414 112.648 149.871 113.238C149.328 113.824 148.6 114.117 147.686 114.117C146.771 114.117 146.041 113.824 145.494 113.238C144.951 112.652 144.68 111.855 144.68 110.848V110.771ZM146.373 110.895C146.373 111.496 146.486 111.957 146.713 112.277C146.939 112.594 147.264 112.752 147.686 112.752C148.096 112.752 148.416 112.596 148.646 112.283C148.877 111.967 148.992 111.463 148.992 110.771C148.992 110.182 148.877 109.725 148.646 109.4C148.416 109.076 148.092 108.914 147.674 108.914C147.26 108.914 146.939 109.076 146.713 109.4C146.486 109.721 146.373 110.219 146.373 110.895ZM159.961 110.514H156.586V114H154.828V105.469H160.383V106.893H156.586V109.096H159.961V110.514ZM163.078 114H161.379V107.66H163.078V114ZM161.279 106.02C161.279 105.766 161.363 105.557 161.531 105.393C161.703 105.229 161.936 105.146 162.229 105.146C162.518 105.146 162.748 105.229 162.92 105.393C163.092 105.557 163.178 105.766 163.178 106.02C163.178 106.277 163.09 106.488 162.914 106.652C162.742 106.816 162.514 106.898 162.229 106.898C161.943 106.898 161.713 106.816 161.537 106.652C161.365 106.488 161.279 106.277 161.279 106.02ZM166.266 114H164.566V105H166.266V114ZM170.584 114.117C169.654 114.117 168.896 113.832 168.311 113.262C167.729 112.691 167.438 111.932 167.438 110.982V110.818C167.438 110.182 167.561 109.613 167.807 109.113C168.053 108.609 168.4 108.223 168.85 107.953C169.303 107.68 169.818 107.543 170.396 107.543C171.264 107.543 171.945 107.816 172.441 108.363C172.941 108.91 173.191 109.686 173.191 110.689V111.381H169.154C169.209 111.795 169.373 112.127 169.646 112.377C169.924 112.627 170.273 112.752 170.695 112.752C171.348 112.752 171.857 112.516 172.225 112.043L173.057 112.975C172.803 113.334 172.459 113.615 172.025 113.818C171.592 114.018 171.111 114.117 170.584 114.117ZM170.391 108.914C170.055 108.914 169.781 109.027 169.57 109.254C169.363 109.48 169.23 109.805 169.172 110.227H171.527V110.092C171.52 109.717 171.418 109.428 171.223 109.225C171.027 109.018 170.75 108.914 170.391 108.914Z" fill="white"/>
<path d="M268.059 107.469L270.25 113.656L272.43 107.469H274.738V116H272.975V113.668L273.15 109.643L270.848 116H269.641L267.344 109.648L267.52 113.668V116H265.762V107.469H268.059ZM279.959 115.355C279.541 115.863 278.963 116.117 278.225 116.117C277.545 116.117 277.025 115.922 276.666 115.531C276.311 115.141 276.129 114.568 276.121 113.814V109.66H277.814V113.756C277.814 114.416 278.115 114.746 278.717 114.746C279.291 114.746 279.686 114.547 279.9 114.148V109.66H281.6V116H280.006L279.959 115.355ZM284.664 116H282.965V107H284.664V116ZM288.092 108.102V109.66H289.176V110.902H288.092V114.066C288.092 114.301 288.137 114.469 288.227 114.57C288.316 114.672 288.488 114.723 288.742 114.723C288.93 114.723 289.096 114.709 289.24 114.682V115.965C288.908 116.066 288.566 116.117 288.215 116.117C287.027 116.117 286.422 115.518 286.398 114.318V110.902H285.473V109.66H286.398V108.102H288.092ZM291.906 116H290.207V109.66H291.906V116ZM290.107 108.02C290.107 107.766 290.191 107.557 290.359 107.393C290.531 107.229 290.764 107.146 291.057 107.146C291.346 107.146 291.576 107.229 291.748 107.393C291.92 107.557 292.006 107.766 292.006 108.02C292.006 108.277 291.918 108.488 291.742 108.652C291.57 108.816 291.342 108.898 291.057 108.898C290.771 108.898 290.541 108.816 290.365 108.652C290.193 108.488 290.107 108.277 290.107 108.02ZM299.014 112.889C299.014 113.865 298.791 114.648 298.346 115.238C297.904 115.824 297.307 116.117 296.553 116.117C295.912 116.117 295.395 115.895 295 115.449V118.438H293.307V109.66H294.877L294.936 110.281C295.346 109.789 295.881 109.543 296.541 109.543C297.322 109.543 297.93 109.832 298.363 110.41C298.797 110.988 299.014 111.785 299.014 112.801V112.889ZM297.32 112.766C297.32 112.176 297.215 111.721 297.004 111.4C296.797 111.08 296.494 110.92 296.096 110.92C295.564 110.92 295.199 111.123 295 111.529V114.125C295.207 114.543 295.576 114.752 296.107 114.752C296.916 114.752 297.32 114.09 297.32 112.766ZM301.855 116H300.156V107H301.855V116ZM306.174 116.117C305.244 116.117 304.486 115.832 303.9 115.262C303.318 114.691 303.027 113.932 303.027 112.982V112.818C303.027 112.182 303.15 111.613 303.396 111.113C303.643 110.609 303.99 110.223 304.439 109.953C304.893 109.68 305.408 109.543 305.986 109.543C306.854 109.543 307.535 109.816 308.031 110.363C308.531 110.91 308.781 111.686 308.781 112.689V113.381H304.744C304.799 113.795 304.963 114.127 305.236 114.377C305.514 114.627 305.863 114.752 306.285 114.752C306.938 114.752 307.447 114.516 307.814 114.043L308.646 114.975C308.393 115.334 308.049 115.615 307.615 115.818C307.182 116.018 306.701 116.117 306.174 116.117ZM305.98 110.914C305.645 110.914 305.371 111.027 305.16 111.254C304.953 111.48 304.82 111.805 304.762 112.227H307.117V112.092C307.109 111.717 307.008 111.428 306.812 111.225C306.617 111.018 306.34 110.914 305.98 110.914ZM316 113.885L317.934 107.469H319.891L316.92 116H315.086L312.127 107.469H314.078L316 113.885ZM322.375 116H320.676V109.66H322.375V116ZM320.576 108.02C320.576 107.766 320.66 107.557 320.828 107.393C321 107.229 321.232 107.146 321.525 107.146C321.814 107.146 322.045 107.229 322.217 107.393C322.389 107.557 322.475 107.766 322.475 108.02C322.475 108.277 322.387 108.488 322.211 108.652C322.039 108.816 321.811 108.898 321.525 108.898C321.24 108.898 321.01 108.816 320.834 108.652C320.662 108.488 320.576 108.277 320.576 108.02ZM323.512 112.783C323.512 111.795 323.732 111.008 324.174 110.422C324.619 109.836 325.227 109.543 325.996 109.543C326.613 109.543 327.123 109.773 327.525 110.234V107H329.225V116H327.695L327.613 115.326C327.191 115.854 326.648 116.117 325.984 116.117C325.238 116.117 324.639 115.824 324.186 115.238C323.736 114.648 323.512 113.83 323.512 112.783ZM325.205 112.906C325.205 113.5 325.309 113.955 325.516 114.271C325.723 114.588 326.023 114.746 326.418 114.746C326.941 114.746 327.311 114.525 327.525 114.084V111.582C327.314 111.141 326.949 110.92 326.43 110.92C325.613 110.92 325.205 111.582 325.205 112.906ZM333.455 116.117C332.525 116.117 331.768 115.832 331.182 115.262C330.6 114.691 330.309 113.932 330.309 112.982V112.818C330.309 112.182 330.432 111.613 330.678 111.113C330.924 110.609 331.271 110.223 331.721 109.953C332.174 109.68 332.689 109.543 333.268 109.543C334.135 109.543 334.816 109.816 335.312 110.363C335.812 110.91 336.062 111.686 336.062 112.689V113.381H332.025C332.08 113.795 332.244 114.127 332.518 114.377C332.795 114.627 333.145 114.752 333.566 114.752C334.219 114.752 334.729 114.516 335.096 114.043L335.928 114.975C335.674 115.334 335.33 115.615 334.896 115.818C334.463 116.018 333.982 116.117 333.455 116.117ZM333.262 110.914C332.926 110.914 332.652 111.027 332.441 111.254C332.234 111.48 332.102 111.805 332.043 112.227H334.398V112.092C334.391 111.717 334.289 111.428 334.094 111.225C333.898 111.018 333.621 110.914 333.262 110.914ZM336.766 112.771C336.766 112.143 336.887 111.582 337.129 111.09C337.371 110.598 337.719 110.217 338.172 109.947C338.629 109.678 339.158 109.543 339.76 109.543C340.615 109.543 341.312 109.805 341.852 110.328C342.395 110.852 342.697 111.562 342.76 112.461L342.771 112.895C342.771 113.867 342.5 114.648 341.957 115.238C341.414 115.824 340.686 116.117 339.771 116.117C338.857 116.117 338.127 115.824 337.58 115.238C337.037 114.652 336.766 113.855 336.766 112.848V112.771ZM338.459 112.895C338.459 113.496 338.572 113.957 338.799 114.277C339.025 114.594 339.35 114.752 339.771 114.752C340.182 114.752 340.502 114.596 340.732 114.283C340.963 113.967 341.078 113.463 341.078 112.771C341.078 112.182 340.963 111.725 340.732 111.4C340.502 111.076 340.178 110.914 339.76 110.914C339.346 110.914 339.025 111.076 338.799 111.4C338.572 111.721 338.459 112.219 338.459 112.895ZM352.047 112.514H348.672V116H346.914V107.469H352.469V108.893H348.672V111.096H352.047V112.514ZM355.164 116H353.465V109.66H355.164V116ZM353.365 108.02C353.365 107.766 353.449 107.557 353.617 107.393C353.789 107.229 354.021 107.146 354.314 107.146C354.604 107.146 354.834 107.229 355.006 107.393C355.178 107.557 355.264 107.766 355.264 108.02C355.264 108.277 355.176 108.488 355 108.652C354.828 108.816 354.6 108.898 354.314 108.898C354.029 108.898 353.799 108.816 353.623 108.652C353.451 108.488 353.365 108.277 353.365 108.02ZM358.352 116H356.652V107H358.352V116ZM362.67 116.117C361.74 116.117 360.982 115.832 360.396 115.262C359.814 114.691 359.523 113.932 359.523 112.982V112.818C359.523 112.182 359.646 111.613 359.893 111.113C360.139 110.609 360.486 110.223 360.936 109.953C361.389 109.68 361.904 109.543 362.482 109.543C363.35 109.543 364.031 109.816 364.527 110.363C365.027 110.91 365.277 111.686 365.277 112.689V113.381H361.24C361.295 113.795 361.459 114.127 361.732 114.377C362.01 114.627 362.359 114.752 362.781 114.752C363.434 114.752 363.943 114.516 364.311 114.043L365.143 114.975C364.889 115.334 364.545 115.615 364.111 115.818C363.678 116.018 363.197 116.117 362.67 116.117ZM362.477 110.914C362.141 110.914 361.867 111.027 361.656 111.254C361.449 111.48 361.316 111.805 361.258 112.227H363.613V112.092C363.605 111.717 363.504 111.428 363.309 111.225C363.113 111.018 362.836 110.914 362.477 110.914ZM369.678 114.248C369.678 114.041 369.574 113.879 369.367 113.762C369.164 113.641 368.836 113.533 368.383 113.439C366.875 113.123 366.121 112.482 366.121 111.518C366.121 110.955 366.354 110.486 366.818 110.111C367.287 109.732 367.898 109.543 368.652 109.543C369.457 109.543 370.1 109.732 370.58 110.111C371.064 110.49 371.307 110.982 371.307 111.588H369.613C369.613 111.346 369.535 111.146 369.379 110.99C369.223 110.83 368.979 110.75 368.646 110.75C368.361 110.75 368.141 110.814 367.984 110.943C367.828 111.072 367.75 111.236 367.75 111.436C367.75 111.623 367.838 111.775 368.014 111.893C368.193 112.006 368.494 112.105 368.916 112.191C369.338 112.273 369.693 112.367 369.982 112.473C370.877 112.801 371.324 113.369 371.324 114.178C371.324 114.756 371.076 115.225 370.58 115.584C370.084 115.939 369.443 116.117 368.658 116.117C368.127 116.117 367.654 116.023 367.24 115.836C366.83 115.645 366.508 115.385 366.273 115.057C366.039 114.725 365.922 114.367 365.922 113.984H367.527C367.543 114.285 367.654 114.516 367.861 114.676C368.068 114.836 368.346 114.916 368.693 114.916C369.018 114.916 369.262 114.855 369.426 114.734C369.594 114.609 369.678 114.447 369.678 114.248Z" fill="white"/>
<rect x="12" y="20" width="60" height="60" rx="10" fill="#AAAAAA"/>
<rect x="14" y="22" width="56" height="56" rx="10" fill="#101010"/>
<mask id="mask0" mask-type="alpha" maskUnits="userSpaceOnUse" x="14" y="22" width="56" height="56">
<rect x="15.5" y="23.5" width="53" height="53" rx="8.5" fill="#101010" stroke="#A4A4A4" stroke-width="3"/>
</mask>
<g mask="url(#mask0)">
<rect x="25.2212" y="49.5131" width="15" height="18" rx="2.5" transform="rotate(7.04484 25.2212 49.5131)" fill="#0D842E" stroke="#21C81E"/>
<rect x="8.34948" y="47.4281" width="15" height="18" rx="2.5" transform="rotate(7.04484 8.34948 47.4281)" fill="#0D842E" stroke="#21C81E"/>
<rect x="42.0928" y="51.5981" width="23" height="18" rx="2.5" transform="rotate(7.04484 42.0928 51.5981)" fill="#0D842E" stroke="#21C81E"/>
<rect x="67.8965" y="54.7869" width="23" height="18" rx="2.5" transform="rotate(7.04484 67.8965 54.7869)" fill="#0D842E" stroke="#21C81E"/>
<path d="M32.724 41.7981L33.5731 34.9273L41.5127 35.9085L40.6636 42.7793L36.1274 45.319L32.724 41.7981Z" fill="#1A90ED" stroke="#00569A"/>
<path d="M15.8523 39.7131L16.7014 32.8423L24.641 33.8235L23.7919 40.6943L19.2557 43.234L15.8523 39.7131Z" fill="#1A90ED" stroke="#00569A"/>
<path d="M45.6259 43.3925L46.4749 36.5217L54.4145 37.5029L53.5655 44.3737L49.0292 46.9134L45.6259 43.3925Z" fill="#1A90ED" stroke="#00569A"/>
<path d="M65.4749 45.8454L66.3239 38.9746L74.2635 39.9558L73.4145 46.8266L68.8782 49.3663L65.4749 45.8454Z" fill="#1A90ED" stroke="#00569A"/>
</g>
<path d="M98.6895 52.2695H106.909V54.3477H98.6895V63.291H96.4443V54.3477H88.3916V52.2695H96.4443V43.623H98.6895V52.2695Z" fill="white"/>
<path d="M240.239 52.6182H224.765V50.6514H240.239V52.6182ZM240.239 60.2441H224.765V58.2773H240.239V60.2441Z" fill="white"/>
<g clip-path="url(#clip0)">
<rect x="124" y="17" width="66" height="66" fill="#FF432E"/>
<path d="M190.167 51.2846L174.375 35.4922L140 70.0606L152.842 82.9025C154.264 83.0895 174.027 83 175.5 83C193.5 83.785 189.5 73.5 190.167 51.2846Z" fill="#DB0404"/>
<path d="M164.09 25.2071H139.813V69.8731H174.187V35.3047L164.09 25.2071Z" fill="white"/>
<path d="M174.187 35.3047L164.09 25.2071H156.945V69.8731H174.187V35.3047Z" fill="#F2F6FC"/>
<path d="M164.09 35.3047H174.187L164.09 25.2071V35.3047Z" fill="#DCE1EB"/>
<path d="M170.191 45.1107L164.228 49.0081V44.2735H143.463V60.6306H164.228V55.8962L170.191 59.7934V45.1107Z" fill="#4A7AFF"/>
<path d="M164.228 49.0081V44.2735H156.945V60.6306H164.228V55.8962L170.191 59.7934V45.1107L164.228 49.0081Z" fill="#2864F0"/>
<path d="M147.176 49.1897C148.087 49.1897 148.825 48.4513 148.825 47.5405C148.825 46.6296 148.087 45.8913 147.176 45.8913C146.265 45.8913 145.527 46.6296 145.527 47.5405C145.527 48.4513 146.265 49.1897 147.176 49.1897Z" fill="#87C7FF"/>
<path d="M151.784 49.1897C152.695 49.1897 153.434 48.4513 153.434 47.5405C153.434 46.6296 152.695 45.8912 151.784 45.8912C150.874 45.8912 150.135 46.6296 150.135 47.5405C150.135 48.4513 150.874 49.1897 151.784 49.1897Z" fill="#87C7FF"/>
</g>
<g filter="url(#filter0_d)">
<g clip-path="url(#clip1)">
<rect x="265" y="13" width="66" height="66" fill="#2E82FF"/>
<path d="M331.167 47.2846L315.375 31.4922L281 66.0606L293.842 78.9025C295.264 79.0895 315.027 79 316.5 79C334.5 79.785 330.5 69.5 331.167 47.2846Z" fill="black" fill-opacity="0.26"/>
<path d="M305.09 21.2071H280.813V65.8731H315.187V31.3047L305.09 21.2071Z" fill="white"/>
<path d="M315.187 31.3047L305.09 21.2071H297.945V65.8731H315.187V31.3047Z" fill="#F2F6FC"/>
<path d="M305.09 31.3047H315.187L305.09 21.2071V31.3047Z" fill="#DCE1EB"/>
<path d="M311.191 41.1107L305.228 45.0081V40.2735H284.463V56.6306H305.228V51.8962L311.191 55.7934V41.1107Z" fill="#4A7AFF"/>
<path d="M305.228 45.0081V40.2735H297.945V56.6306H305.228V51.8962L311.191 55.7934V41.1107L305.228 45.0081Z" fill="#2864F0"/>
<path d="M288.176 45.1897C289.087 45.1897 289.825 44.4513 289.825 43.5405C289.825 42.6296 289.087 41.8913 288.176 41.8913C287.265 41.8913 286.527 42.6296 286.527 43.5405C286.527 44.4513 287.265 45.1897 288.176 45.1897Z" fill="#87C7FF"/>
<path d="M292.784 45.1897C293.695 45.1897 294.434 44.4513 294.434 43.5405C294.434 42.6296 293.695 41.8912 292.784 41.8912C291.874 41.8912 291.135 42.6296 291.135 43.5405C291.135 44.4513 291.874 45.1897 292.784 45.1897Z" fill="#87C7FF"/>
</g>
</g>
<g filter="url(#filter1_d)">
<g clip-path="url(#clip2)">
<rect x="272" y="20" width="66" height="66" fill="#2E82FF"/>
<path d="M338.167 54.2846L322.375 38.4922L288 73.0606L300.842 85.9025C302.264 86.0895 322.027 86 323.5 86C341.5 86.785 337.5 76.5 338.167 54.2846Z" fill="black" fill-opacity="0.26"/>
<path d="M312.09 28.2071H287.813V72.8731H322.187V38.3047L312.09 28.2071Z" fill="white"/>
<path d="M322.187 38.3047L312.09 28.2071H304.945V72.8731H322.187V38.3047Z" fill="#F2F6FC"/>
<path d="M312.09 38.3047H322.187L312.09 28.2071V38.3047Z" fill="#DCE1EB"/>
<path d="M318.191 48.1107L312.228 52.0081V47.2735H291.463V63.6306H312.228V58.8962L318.191 62.7934V48.1107Z" fill="#4A7AFF"/>
<path d="M312.228 52.0081V47.2735H304.945V63.6306H312.228V58.8962L318.191 62.7934V48.1107L312.228 52.0081Z" fill="#2864F0"/>
<path d="M295.176 52.1897C296.087 52.1897 296.825 51.4513 296.825 50.5405C296.825 49.6296 296.087 48.8913 295.176 48.8913C294.265 48.8913 293.527 49.6296 293.527 50.5405C293.527 51.4513 294.265 52.1897 295.176 52.1897Z" fill="#87C7FF"/>
<path d="M299.784 52.1897C300.695 52.1897 301.434 51.4513 301.434 50.5405C301.434 49.6296 300.695 48.8912 299.784 48.8912C298.874 48.8912 298.135 49.6296 298.135 50.5405C298.135 51.4513 298.874 52.1897 299.784 52.1897Z" fill="#87C7FF"/>
</g>
</g>
<g filter="url(#filter2_d)">
<g clip-path="url(#clip3)">
<rect x="280" y="27" width="66" height="66" fill="#2E82FF"/>
<path d="M346.167 61.2846L330.375 45.4922L296 80.0606L308.842 92.9025C310.264 93.0895 330.027 93 331.5 93C349.5 93.785 345.5 83.5 346.167 61.2846Z" fill="black" fill-opacity="0.26"/>
<path d="M320.09 35.2071H295.813V79.8731H330.187V45.3047L320.09 35.2071Z" fill="white"/>
<path d="M330.187 45.3047L320.09 35.2071H312.945V79.8731H330.187V45.3047Z" fill="#F2F6FC"/>
<path d="M320.09 45.3047H330.187L320.09 35.2071V45.3047Z" fill="#DCE1EB"/>
<path d="M326.191 55.1107L320.228 59.0081V54.2735H299.463V70.6306H320.228V65.8962L326.191 69.7934V55.1107Z" fill="#4A7AFF"/>
<path d="M320.228 59.0081V54.2735H312.945V70.6306H320.228V65.8962L326.191 69.7934V55.1107L320.228 59.0081Z" fill="#2864F0"/>
<path d="M303.176 59.1897C304.087 59.1897 304.825 58.4513 304.825 57.5405C304.825 56.6296 304.087 55.8913 303.176 55.8913C302.265 55.8913 301.527 56.6296 301.527 57.5405C301.527 58.4513 302.265 59.1897 303.176 59.1897Z" fill="#87C7FF"/>
<path d="M307.784 59.1897C308.695 59.1897 309.434 58.4513 309.434 57.5405C309.434 56.6296 308.695 55.8913 307.784 55.8913C306.874 55.8913 306.135 56.6296 306.135 57.5405C306.135 58.4513 306.874 59.1897 307.784 59.1897Z" fill="#87C7FF"/>
</g>
</g>
<defs>
<filter id="filter0_d" x="252" y="0" width="92" height="92" filterUnits="userSpaceOnUse" color-interpolation-filters="sRGB">
<feFlood flood-opacity="0" result="BackgroundImageFix"/>
<feColorMatrix in="SourceAlpha" type="matrix" values="0 0 0 0 0 0 0 0 0 0 0 0 0 0 0 0 0 0 127 0" result="hardAlpha"/>
<feOffset/>
<feGaussianBlur stdDeviation="6.5"/>
<feComposite in2="hardAlpha" operator="out"/>
<feColorMatrix type="matrix" values="0 0 0 0 0 0 0 0 0 0 0 0 0 0 0 0 0 0 0.46 0"/>
<feBlend mode="normal" in2="BackgroundImageFix" result="effect1_dropShadow"/>
<feBlend mode="normal" in="SourceGraphic" in2="effect1_dropShadow" result="shape"/>
</filter>
<filter id="filter1_d" x="259" y="7" width="92" height="92" filterUnits="userSpaceOnUse" color-interpolation-filters="sRGB">
<feFlood flood-opacity="0" result="BackgroundImageFix"/>
<feColorMatrix in="SourceAlpha" type="matrix" values="0 0 0 0 0 0 0 0 0 0 0 0 0 0 0 0 0 0 127 0" result="hardAlpha"/>
<feOffset/>
<feGaussianBlur stdDeviation="6.5"/>
<feComposite in2="hardAlpha" operator="out"/>
<feColorMatrix type="matrix" values="0 0 0 0 0 0 0 0 0 0 0 0 0 0 0 0 0 0 0.46 0"/>
<feBlend mode="normal" in2="BackgroundImageFix" result="effect1_dropShadow"/>
<feBlend mode="normal" in="SourceGraphic" in2="effect1_dropShadow" result="shape"/>
</filter>
<filter id="filter2_d" x="267" y="14" width="92" height="92" filterUnits="userSpaceOnUse" color-interpolation-filters="sRGB">
<feFlood flood-opacity="0" result="BackgroundImageFix"/>
<feColorMatrix in="SourceAlpha" type="matrix" values="0 0 0 0 0 0 0 0 0 0 0 0 0 0 0 0 0 0 127 0" result="hardAlpha"/>
<feOffset/>
<feGaussianBlur stdDeviation="6.5"/>
<feComposite in2="hardAlpha" operator="out"/>
<feColorMatrix type="matrix" values="0 0 0 0 0 0 0 0 0 0 0 0 0 0 0 0 0 0 0.46 0"/>
<feBlend mode="normal" in2="BackgroundImageFix" result="effect1_dropShadow"/>
<feBlend mode="normal" in="SourceGraphic" in2="effect1_dropShadow" result="shape"/>
</filter>
<clipPath id="clip0">
<rect x="124" y="17" width="66" height="66" rx="10" fill="white"/>
</clipPath>
<clipPath id="clip1">
<rect x="265" y="13" width="66" height="66" rx="10" fill="white"/>
</clipPath>
<clipPath id="clip2">
<rect x="272" y="20" width="66" height="66" rx="10" fill="white"/>
</clipPath>
<clipPath id="clip3">
<rect x="280" y="27" width="66" height="66" rx="10" fill="white"/>
</clipPath>
</defs>
</svg>
