<svg width="370" height="219" viewBox="0 0 370 219" fill="none" xmlns="http://www.w3.org/2000/svg">
<g clip-path="url(#clip0)">
<rect width="370" height="219" fill="#262626"/>
<g clip-path="url(#clip1)">
<path d="M137.156 58.7824L139.746 54.8296L187.865 86.3494L185.277 90.3022L137.156 58.7824Z" fill="#F29200"/>
<path d="M236.661 95.0218L230.96 100.723C230.517 101.165 229.916 101.415 229.29 101.415H214.715V90.0012H209.992V101.415H193.461V90.0012H188.738V101.415H169.846C169.103 101.412 168.405 101.063 167.957 100.47L162.289 92.9128L158.511 95.7471L164.179 103.303C165.518 105.085 167.617 106.134 169.846 106.138H229.29C231.171 106.143 232.974 105.395 234.299 104.062L240 98.3612L236.661 95.0218Z" fill="#666666"/>
<path d="M167.484 49.4608H208.91C223.854 49.4608 235.969 61.5752 235.969 76.5193V78.784C235.969 87.3699 229.009 94.33 220.423 94.33H200.113C182.473 94.33 174.333 81.9746 170.696 64.7139L167.484 49.4608Z" fill="#ED1C24"/>
<path d="M208.91 49.4608H198.184L211.855 75.4377L221.773 94.2619C229.803 93.5643 235.968 86.8441 235.969 78.784V76.5193C235.969 61.5752 223.854 49.4608 208.91 49.4608V49.4608Z" fill="#00BBD6"/>
<path d="M167.484 49.4608H113.169L108.446 30.5686L99 28.207L106.085 54.1839L103.723 68.3531H110.808L113.169 58.907H169.472L167.484 49.4608Z" fill="#F8CF26"/>
<path d="M169.846 49.4608C169.846 44.2443 174.075 40.0147 179.292 40.0147H191.1C196.316 40.0147 200.546 44.2443 200.546 49.4608H169.846Z" fill="#666666"/>
<path d="M181.654 18.7609H186.377V40.0147H181.654V18.7609Z" fill="#333333"/>
<path d="M132.061 23.484H238.33V28.207H132.061V23.484Z" fill="#999999"/>
<path d="M176.931 54.1839H186.377V58.907H176.931V54.1839Z" fill="#29485A"/>
<path d="M176.931 63.63H184.015V68.3531H176.931V63.63Z" fill="#29485A"/>
<path d="M226.523 80.1608H235.969V84.8838H226.523V80.1608Z" fill="#29485A"/>
<path d="M208.91 49.4608H198.184L211.855 75.4377H235.915C235.344 60.9341 223.424 49.4689 208.91 49.4608V49.4608Z" fill="#92D7E7"/>
</g>
<path d="M54.004 135.2V166H50.88V141.36L38.78 162.084H37.24L25.14 141.492V166H22.016V135.2H24.7L38.076 158.036L51.32 135.2H54.004ZM83.5314 155.396H64.1714C64.3474 157.801 65.2714 159.752 66.9434 161.248C68.6154 162.715 70.7274 163.448 73.2794 163.448C74.7168 163.448 76.0368 163.199 77.2394 162.7C78.4421 162.172 79.4834 161.409 80.3634 160.412L82.1234 162.436C81.0968 163.668 79.8061 164.607 78.2514 165.252C76.7261 165.897 75.0394 166.22 73.1914 166.22C70.8154 166.22 68.7034 165.721 66.8554 164.724C65.0368 163.697 63.6141 162.289 62.5874 160.5C61.5608 158.711 61.0474 156.687 61.0474 154.428C61.0474 152.169 61.5314 150.145 62.4994 148.356C63.4968 146.567 64.8461 145.173 66.5474 144.176C68.2781 143.179 70.2141 142.68 72.3554 142.68C74.4968 142.68 76.4181 143.179 78.1194 144.176C79.8208 145.173 81.1554 146.567 82.1234 148.356C83.0914 150.116 83.5754 152.14 83.5754 154.428L83.5314 155.396ZM72.3554 145.364C70.1261 145.364 68.2488 146.083 66.7234 147.52C65.2274 148.928 64.3768 150.776 64.1714 153.064H80.5834C80.3781 150.776 79.5128 148.928 77.9874 147.52C76.4914 146.083 74.6141 145.364 72.3554 145.364ZM111.054 133.352V166H108.062V161.424C107.123 162.979 105.877 164.167 104.322 164.988C102.797 165.809 101.066 166.22 99.1301 166.22C96.9595 166.22 94.9941 165.721 93.2341 164.724C91.4741 163.727 90.0955 162.333 89.0981 160.544C88.1008 158.755 87.6021 156.716 87.6021 154.428C87.6021 152.14 88.1008 150.101 89.0981 148.312C90.0955 146.523 91.4741 145.144 93.2341 144.176C94.9941 143.179 96.9595 142.68 99.1301 142.68C101.007 142.68 102.694 143.076 104.19 143.868C105.715 144.631 106.962 145.76 107.93 147.256V133.352H111.054ZM99.3941 163.448C101.007 163.448 102.459 163.081 103.75 162.348C105.07 161.585 106.097 160.515 106.83 159.136C107.593 157.757 107.974 156.188 107.974 154.428C107.974 152.668 107.593 151.099 106.83 149.72C106.097 148.341 105.07 147.285 103.75 146.552C102.459 145.789 101.007 145.408 99.3941 145.408C97.7515 145.408 96.2701 145.789 94.9501 146.552C93.6595 147.285 92.6328 148.341 91.8701 149.72C91.1368 151.099 90.7701 152.668 90.7701 154.428C90.7701 156.188 91.1368 157.757 91.8701 159.136C92.6328 160.515 93.6595 161.585 94.9501 162.348C96.2701 163.081 97.7515 163.448 99.3941 163.448ZM119.754 142.856H122.878V166H119.754V142.856ZM121.338 137.796C120.693 137.796 120.15 137.576 119.71 137.136C119.27 136.696 119.05 136.168 119.05 135.552C119.05 134.965 119.27 134.452 119.71 134.012C120.15 133.572 120.693 133.352 121.338 133.352C121.984 133.352 122.526 133.572 122.966 134.012C123.406 134.423 123.626 134.921 123.626 135.508C123.626 136.153 123.406 136.696 122.966 137.136C122.526 137.576 121.984 137.796 121.338 137.796ZM139.667 142.68C142.688 142.68 145.006 143.443 146.619 144.968C148.232 146.464 149.039 148.693 149.039 151.656V166H146.047V162.392C145.343 163.595 144.302 164.533 142.923 165.208C141.574 165.883 139.96 166.22 138.083 166.22C135.502 166.22 133.448 165.604 131.923 164.372C130.398 163.14 129.635 161.512 129.635 159.488C129.635 157.523 130.339 155.939 131.747 154.736C133.184 153.533 135.458 152.932 138.567 152.932H145.915V151.524C145.915 149.529 145.358 148.019 144.243 146.992C143.128 145.936 141.5 145.408 139.359 145.408C137.892 145.408 136.484 145.657 135.135 146.156C133.786 146.625 132.627 147.285 131.659 148.136L130.251 145.804C131.424 144.807 132.832 144.044 134.475 143.516C136.118 142.959 137.848 142.68 139.667 142.68ZM138.567 163.756C140.327 163.756 141.838 163.36 143.099 162.568C144.36 161.747 145.299 160.573 145.915 159.048V155.264H138.655C134.695 155.264 132.715 156.643 132.715 159.4C132.715 160.749 133.228 161.82 134.255 162.612C135.282 163.375 136.719 163.756 138.567 163.756ZM171.56 166.528C168.421 166.528 165.576 165.853 163.024 164.504C160.501 163.125 158.507 161.233 157.04 158.828C155.603 156.393 154.884 153.651 154.884 150.6C154.884 147.549 155.603 144.821 157.04 142.416C158.507 139.981 160.501 138.089 163.024 136.74C165.576 135.361 168.436 134.672 171.604 134.672C174.273 134.672 176.679 135.141 178.82 136.08C180.991 137.019 182.809 138.368 184.276 140.128L179.7 144.352C177.617 141.947 175.036 140.744 171.956 140.744C170.049 140.744 168.348 141.169 166.852 142.02C165.356 142.841 164.183 144 163.332 145.496C162.511 146.992 162.1 148.693 162.1 150.6C162.1 152.507 162.511 154.208 163.332 155.704C164.183 157.2 165.356 158.373 166.852 159.224C168.348 160.045 170.049 160.456 171.956 160.456C175.036 160.456 177.617 159.239 179.7 156.804L184.276 161.028C182.809 162.817 180.991 164.181 178.82 165.12C176.649 166.059 174.229 166.528 171.56 166.528ZM202.994 141.976C205.927 141.976 208.288 142.856 210.078 144.616C211.896 146.376 212.806 148.987 212.806 152.448V166H205.942V153.504C205.942 151.627 205.531 150.233 204.71 149.324C203.888 148.385 202.7 147.916 201.146 147.916C199.415 147.916 198.036 148.459 197.01 149.544C195.983 150.6 195.47 152.184 195.47 154.296V166H188.606V133.352H195.47V144.792C196.379 143.883 197.479 143.193 198.77 142.724C200.06 142.225 201.468 141.976 202.994 141.976ZM230.549 166.352C228.056 166.352 225.812 165.839 223.817 164.812C221.852 163.756 220.312 162.304 219.197 160.456C218.083 158.608 217.525 156.511 217.525 154.164C217.525 151.817 218.083 149.72 219.197 147.872C220.312 146.024 221.852 144.587 223.817 143.56C225.812 142.504 228.056 141.976 230.549 141.976C233.043 141.976 235.272 142.504 237.237 143.56C239.203 144.587 240.743 146.024 241.857 147.872C242.972 149.72 243.529 151.817 243.529 154.164C243.529 156.511 242.972 158.608 241.857 160.456C240.743 162.304 239.203 163.756 237.237 164.812C235.272 165.839 233.043 166.352 230.549 166.352ZM230.549 160.72C232.309 160.72 233.747 160.133 234.861 158.96C236.005 157.757 236.577 156.159 236.577 154.164C236.577 152.169 236.005 150.585 234.861 149.412C233.747 148.209 232.309 147.608 230.549 147.608C228.789 147.608 227.337 148.209 226.193 149.412C225.049 150.585 224.477 152.169 224.477 154.164C224.477 156.159 225.049 157.757 226.193 158.96C227.337 160.133 228.789 160.72 230.549 160.72ZM262.109 141.976C264.309 141.976 266.304 142.489 268.093 143.516C269.912 144.513 271.335 145.936 272.361 147.784C273.388 149.603 273.901 151.729 273.901 154.164C273.901 156.599 273.388 158.74 272.361 160.588C271.335 162.407 269.912 163.829 268.093 164.856C266.304 165.853 264.309 166.352 262.109 166.352C259.088 166.352 256.712 165.399 254.981 163.492V174.536H248.117V142.328H254.673V145.056C256.375 143.003 258.853 141.976 262.109 141.976ZM260.921 160.72C262.681 160.72 264.119 160.133 265.233 158.96C266.377 157.757 266.949 156.159 266.949 154.164C266.949 152.169 266.377 150.585 265.233 149.412C264.119 148.209 262.681 147.608 260.921 147.608C259.161 147.608 257.709 148.209 256.565 149.412C255.451 150.585 254.893 152.169 254.893 154.164C254.893 156.159 255.451 157.757 256.565 158.96C257.709 160.133 259.161 160.72 260.921 160.72ZM292.488 141.976C294.688 141.976 296.683 142.489 298.472 143.516C300.291 144.513 301.713 145.936 302.74 147.784C303.767 149.603 304.28 151.729 304.28 154.164C304.28 156.599 303.767 158.74 302.74 160.588C301.713 162.407 300.291 163.829 298.472 164.856C296.683 165.853 294.688 166.352 292.488 166.352C289.467 166.352 287.091 165.399 285.36 163.492V174.536H278.496V142.328H285.052V145.056C286.753 143.003 289.232 141.976 292.488 141.976ZM291.3 160.72C293.06 160.72 294.497 160.133 295.612 158.96C296.756 157.757 297.328 156.159 297.328 154.164C297.328 152.169 296.756 150.585 295.612 149.412C294.497 148.209 293.06 147.608 291.3 147.608C289.54 147.608 288.088 148.209 286.944 149.412C285.829 150.585 285.272 152.169 285.272 154.164C285.272 156.159 285.829 157.757 286.944 158.96C288.088 160.133 289.54 160.72 291.3 160.72ZM332.063 154.252C332.063 154.34 332.019 154.956 331.931 156.1H314.023C314.346 157.567 315.108 158.725 316.311 159.576C317.514 160.427 319.01 160.852 320.799 160.852C322.031 160.852 323.116 160.676 324.055 160.324C325.023 159.943 325.918 159.356 326.739 158.564L330.391 162.524C328.162 165.076 324.906 166.352 320.623 166.352C317.954 166.352 315.592 165.839 313.539 164.812C311.486 163.756 309.902 162.304 308.787 160.456C307.672 158.608 307.115 156.511 307.115 154.164C307.115 151.847 307.658 149.764 308.743 147.916C309.858 146.039 311.368 144.587 313.275 143.56C315.211 142.504 317.367 141.976 319.743 141.976C322.06 141.976 324.158 142.475 326.035 143.472C327.912 144.469 329.379 145.907 330.435 147.784C331.52 149.632 332.063 151.788 332.063 154.252ZM319.787 147.168C318.232 147.168 316.927 147.608 315.871 148.488C314.815 149.368 314.17 150.571 313.935 152.096H325.595C325.36 150.6 324.715 149.412 323.659 148.532C322.603 147.623 321.312 147.168 319.787 147.168ZM343.189 145.452C344.01 144.308 345.11 143.443 346.489 142.856C347.897 142.269 349.51 141.976 351.329 141.976V148.312C350.566 148.253 350.053 148.224 349.789 148.224C347.824 148.224 346.284 148.781 345.169 149.896C344.054 150.981 343.497 152.624 343.497 154.824V166H336.633V142.328H343.189V145.452Z" fill="#E9E9E9"/>
<path d="M55.325 193.585C56.015 193.735 56.545 194.035 56.915 194.485C57.295 194.925 57.485 195.495 57.485 196.195C57.485 197.095 57.15 197.79 56.48 198.28C55.82 198.76 54.84 199 53.54 199H48.71V188.5H53.24C54.41 188.5 55.315 188.735 55.955 189.205C56.605 189.675 56.93 190.34 56.93 191.2C56.93 191.78 56.785 192.275 56.495 192.685C56.215 193.085 55.825 193.385 55.325 193.585ZM49.82 189.415V193.225H53.165C54.015 193.225 54.67 193.065 55.13 192.745C55.59 192.415 55.82 191.94 55.82 191.32C55.82 190.7 55.59 190.23 55.13 189.91C54.67 189.58 54.015 189.415 53.165 189.415H49.82ZM53.525 198.085C54.465 198.085 55.175 197.925 55.655 197.605C56.135 197.285 56.375 196.785 56.375 196.105C56.375 194.795 55.425 194.14 53.525 194.14H49.82V198.085H53.525ZM59.7936 187.87H60.8586V199H59.7936V187.87ZM66.5819 191.05C67.6119 191.05 68.4019 191.31 68.9519 191.83C69.5019 192.34 69.7769 193.1 69.7769 194.11V199H68.7569V197.77C68.5169 198.18 68.1619 198.5 67.6919 198.73C67.2319 198.96 66.6819 199.075 66.0419 199.075C65.1619 199.075 64.4619 198.865 63.9419 198.445C63.4219 198.025 63.1619 197.47 63.1619 196.78C63.1619 196.11 63.4019 195.57 63.8819 195.16C64.3719 194.75 65.1469 194.545 66.2069 194.545H68.7119V194.065C68.7119 193.385 68.5219 192.87 68.1419 192.52C67.7619 192.16 67.2069 191.98 66.4769 191.98C65.9769 191.98 65.4969 192.065 65.0369 192.235C64.5769 192.395 64.1819 192.62 63.8519 192.91L63.3719 192.115C63.7719 191.775 64.2519 191.515 64.8119 191.335C65.3719 191.145 65.9619 191.05 66.5819 191.05ZM66.2069 198.235C66.8069 198.235 67.3219 198.1 67.7519 197.83C68.1819 197.55 68.5019 197.15 68.7119 196.63V195.34H66.2369C64.8869 195.34 64.2119 195.81 64.2119 196.75C64.2119 197.21 64.3869 197.575 64.7369 197.845C65.0869 198.105 65.5769 198.235 66.2069 198.235ZM78.2346 198.115V199H71.8146V198.295L76.7796 192.01H71.9046V191.11H78.1446V191.815L73.1796 198.115H78.2346ZM80.3307 191.11H81.3957V199H80.3307V191.11ZM80.8707 189.385C80.6507 189.385 80.4657 189.31 80.3157 189.16C80.1657 189.01 80.0907 188.83 80.0907 188.62C80.0907 188.42 80.1657 188.245 80.3157 188.095C80.4657 187.945 80.6507 187.87 80.8707 187.87C81.0907 187.87 81.2757 187.945 81.4257 188.095C81.5757 188.235 81.6507 188.405 81.6507 188.605C81.6507 188.825 81.5757 189.01 81.4257 189.16C81.2757 189.31 81.0907 189.385 80.8707 189.385ZM88.379 191.05C89.369 191.05 90.154 191.34 90.734 191.92C91.324 192.49 91.619 193.325 91.619 194.425V199H90.554V194.53C90.554 193.71 90.349 193.085 89.939 192.655C89.529 192.225 88.944 192.01 88.184 192.01C87.334 192.01 86.659 192.265 86.159 192.775C85.669 193.275 85.424 193.97 85.424 194.86V199H84.359V191.11H85.379V192.565C85.669 192.085 86.069 191.715 86.579 191.455C87.099 191.185 87.699 191.05 88.379 191.05ZM101.845 191.11V198.04C101.845 199.38 101.515 200.37 100.855 201.01C100.205 201.66 99.2197 201.985 97.8997 201.985C97.1697 201.985 96.4747 201.875 95.8147 201.655C95.1647 201.445 94.6347 201.15 94.2247 200.77L94.7647 199.96C95.1447 200.3 95.6047 200.565 96.1447 200.755C96.6947 200.945 97.2697 201.04 97.8697 201.04C98.8697 201.04 99.6047 200.805 100.075 200.335C100.545 199.875 100.78 199.155 100.78 198.175V197.17C100.45 197.67 100.015 198.05 99.4747 198.31C98.9447 198.57 98.3547 198.7 97.7047 198.7C96.9647 198.7 96.2897 198.54 95.6797 198.22C95.0797 197.89 94.6047 197.435 94.2547 196.855C93.9147 196.265 93.7447 195.6 93.7447 194.86C93.7447 194.12 93.9147 193.46 94.2547 192.88C94.6047 192.3 95.0797 191.85 95.6797 191.53C96.2797 191.21 96.9547 191.05 97.7047 191.05C98.3747 191.05 98.9797 191.185 99.5197 191.455C100.06 191.725 100.495 192.115 100.825 192.625V191.11H101.845ZM97.8097 197.755C98.3797 197.755 98.8947 197.635 99.3547 197.395C99.8147 197.145 100.17 196.8 100.42 196.36C100.68 195.92 100.81 195.42 100.81 194.86C100.81 194.3 100.68 193.805 100.42 193.375C100.17 192.935 99.8147 192.595 99.3547 192.355C98.9047 192.105 98.3897 191.98 97.8097 191.98C97.2397 191.98 96.7247 192.1 96.2647 192.34C95.8147 192.58 95.4597 192.92 95.1997 193.36C94.9497 193.8 94.8247 194.3 94.8247 194.86C94.8247 195.42 94.9497 195.92 95.1997 196.36C95.4597 196.8 95.8147 197.145 96.2647 197.395C96.7247 197.635 97.2397 197.755 97.8097 197.755ZM104.823 187.87H105.888V199H104.823V187.87ZM115.481 191.11L111.536 199.945C111.216 200.685 110.846 201.21 110.426 201.52C110.006 201.83 109.501 201.985 108.911 201.985C108.531 201.985 108.176 201.925 107.846 201.805C107.516 201.685 107.231 201.505 106.991 201.265L107.486 200.47C107.886 200.87 108.366 201.07 108.926 201.07C109.286 201.07 109.591 200.97 109.841 200.77C110.101 200.57 110.341 200.23 110.561 199.75L110.906 198.985L107.381 191.11H108.491L111.461 197.815L114.431 191.11H115.481ZM123.517 188.695C123.057 188.695 122.707 188.82 122.467 189.07C122.237 189.32 122.122 189.69 122.122 190.18V191.11H124.552V192.01H122.152V199H121.087V192.01H119.677V191.11H121.087V190.135C121.087 189.415 121.292 188.845 121.702 188.425C122.122 188.005 122.712 187.795 123.472 187.795C123.772 187.795 124.062 187.84 124.342 187.93C124.622 188.01 124.857 188.13 125.047 188.29L124.687 189.085C124.377 188.825 123.987 188.695 123.517 188.695ZM128.603 191.05C129.633 191.05 130.423 191.31 130.973 191.83C131.523 192.34 131.798 193.1 131.798 194.11V199H130.778V197.77C130.538 198.18 130.183 198.5 129.713 198.73C129.253 198.96 128.703 199.075 128.063 199.075C127.183 199.075 126.483 198.865 125.963 198.445C125.443 198.025 125.183 197.47 125.183 196.78C125.183 196.11 125.423 195.57 125.903 195.16C126.393 194.75 127.168 194.545 128.228 194.545H130.733V194.065C130.733 193.385 130.543 192.87 130.163 192.52C129.783 192.16 129.228 191.98 128.498 191.98C127.998 191.98 127.518 192.065 127.058 192.235C126.598 192.395 126.203 192.62 125.873 192.91L125.393 192.115C125.793 191.775 126.273 191.515 126.833 191.335C127.393 191.145 127.983 191.05 128.603 191.05ZM128.228 198.235C128.828 198.235 129.343 198.1 129.773 197.83C130.203 197.55 130.523 197.15 130.733 196.63V195.34H128.258C126.908 195.34 126.233 195.81 126.233 196.75C126.233 197.21 126.408 197.575 126.758 197.845C127.108 198.105 127.598 198.235 128.228 198.235ZM136.806 199.075C136.166 199.075 135.551 198.985 134.961 198.805C134.381 198.615 133.926 198.38 133.596 198.1L134.076 197.26C134.406 197.52 134.821 197.735 135.321 197.905C135.821 198.065 136.341 198.145 136.881 198.145C137.601 198.145 138.131 198.035 138.471 197.815C138.821 197.585 138.996 197.265 138.996 196.855C138.996 196.565 138.901 196.34 138.711 196.18C138.521 196.01 138.281 195.885 137.991 195.805C137.701 195.715 137.316 195.63 136.836 195.55C136.196 195.43 135.681 195.31 135.291 195.19C134.901 195.06 134.566 194.845 134.286 194.545C134.016 194.245 133.881 193.83 133.881 193.3C133.881 192.64 134.156 192.1 134.706 191.68C135.256 191.26 136.021 191.05 137.001 191.05C137.511 191.05 138.021 191.12 138.531 191.26C139.041 191.39 139.461 191.565 139.791 191.785L139.326 192.64C138.676 192.19 137.901 191.965 137.001 191.965C136.321 191.965 135.806 192.085 135.456 192.325C135.116 192.565 134.946 192.88 134.946 193.27C134.946 193.57 135.041 193.81 135.231 193.99C135.431 194.17 135.676 194.305 135.966 194.395C136.256 194.475 136.656 194.56 137.166 194.65C137.796 194.77 138.301 194.89 138.681 195.01C139.061 195.13 139.386 195.335 139.656 195.625C139.926 195.915 140.061 196.315 140.061 196.825C140.061 197.515 139.771 198.065 139.191 198.475C138.621 198.875 137.826 199.075 136.806 199.075ZM146.185 198.52C145.985 198.7 145.735 198.84 145.435 198.94C145.145 199.03 144.84 199.075 144.52 199.075C143.78 199.075 143.21 198.875 142.81 198.475C142.41 198.075 142.21 197.51 142.21 196.78V192.01H140.8V191.11H142.21V189.385H143.275V191.11H145.675V192.01H143.275V196.72C143.275 197.19 143.39 197.55 143.62 197.8C143.86 198.04 144.2 198.16 144.64 198.16C144.86 198.16 145.07 198.125 145.27 198.055C145.48 197.985 145.66 197.885 145.81 197.755L146.185 198.52ZM152.049 187.87H153.114V199H152.049V187.87ZM159.303 199.075C158.543 199.075 157.858 198.905 157.248 198.565C156.638 198.215 156.158 197.735 155.808 197.125C155.458 196.515 155.283 195.825 155.283 195.055C155.283 194.285 155.458 193.595 155.808 192.985C156.158 192.375 156.638 191.9 157.248 191.56C157.858 191.22 158.543 191.05 159.303 191.05C160.063 191.05 160.748 191.22 161.358 191.56C161.968 191.9 162.443 192.375 162.783 192.985C163.133 193.595 163.308 194.285 163.308 195.055C163.308 195.825 163.133 196.515 162.783 197.125C162.443 197.735 161.968 198.215 161.358 198.565C160.748 198.905 160.063 199.075 159.303 199.075ZM159.303 198.13C159.863 198.13 160.363 198.005 160.803 197.755C161.253 197.495 161.603 197.13 161.853 196.66C162.103 196.19 162.228 195.655 162.228 195.055C162.228 194.455 162.103 193.92 161.853 193.45C161.603 192.98 161.253 192.62 160.803 192.37C160.363 192.11 159.863 191.98 159.303 191.98C158.743 191.98 158.238 192.11 157.788 192.37C157.348 192.62 156.998 192.98 156.738 193.45C156.488 193.92 156.363 194.455 156.363 195.055C156.363 195.655 156.488 196.19 156.738 196.66C156.998 197.13 157.348 197.495 157.788 197.755C158.238 198.005 158.743 198.13 159.303 198.13ZM167.597 199.075C166.957 199.075 166.342 198.985 165.752 198.805C165.172 198.615 164.717 198.38 164.387 198.1L164.867 197.26C165.197 197.52 165.612 197.735 166.112 197.905C166.612 198.065 167.132 198.145 167.672 198.145C168.392 198.145 168.922 198.035 169.262 197.815C169.612 197.585 169.787 197.265 169.787 196.855C169.787 196.565 169.692 196.34 169.502 196.18C169.312 196.01 169.072 195.885 168.782 195.805C168.492 195.715 168.107 195.63 167.627 195.55C166.987 195.43 166.472 195.31 166.082 195.19C165.692 195.06 165.357 194.845 165.077 194.545C164.807 194.245 164.672 193.83 164.672 193.3C164.672 192.64 164.947 192.1 165.497 191.68C166.047 191.26 166.812 191.05 167.792 191.05C168.302 191.05 168.812 191.12 169.322 191.26C169.832 191.39 170.252 191.565 170.582 191.785L170.117 192.64C169.467 192.19 168.692 191.965 167.792 191.965C167.112 191.965 166.597 192.085 166.247 192.325C165.907 192.565 165.737 192.88 165.737 193.27C165.737 193.57 165.832 193.81 166.022 193.99C166.222 194.17 166.467 194.305 166.757 194.395C167.047 194.475 167.447 194.56 167.957 194.65C168.587 194.77 169.092 194.89 169.472 195.01C169.852 195.13 170.177 195.335 170.447 195.625C170.717 195.915 170.852 196.315 170.852 196.825C170.852 197.515 170.562 198.065 169.982 198.475C169.412 198.875 168.617 199.075 167.597 199.075ZM174.936 199.075C174.296 199.075 173.681 198.985 173.091 198.805C172.511 198.615 172.056 198.38 171.726 198.1L172.206 197.26C172.536 197.52 172.951 197.735 173.451 197.905C173.951 198.065 174.471 198.145 175.011 198.145C175.731 198.145 176.261 198.035 176.601 197.815C176.951 197.585 177.126 197.265 177.126 196.855C177.126 196.565 177.031 196.34 176.841 196.18C176.651 196.01 176.411 195.885 176.121 195.805C175.831 195.715 175.446 195.63 174.966 195.55C174.326 195.43 173.811 195.31 173.421 195.19C173.031 195.06 172.696 194.845 172.416 194.545C172.146 194.245 172.011 193.83 172.011 193.3C172.011 192.64 172.286 192.1 172.836 191.68C173.386 191.26 174.151 191.05 175.131 191.05C175.641 191.05 176.151 191.12 176.661 191.26C177.171 191.39 177.591 191.565 177.921 191.785L177.456 192.64C176.806 192.19 176.031 191.965 175.131 191.965C174.451 191.965 173.936 192.085 173.586 192.325C173.246 192.565 173.076 192.88 173.076 193.27C173.076 193.57 173.171 193.81 173.361 193.99C173.561 194.17 173.806 194.305 174.096 194.395C174.386 194.475 174.786 194.56 175.296 194.65C175.926 194.77 176.431 194.89 176.811 195.01C177.191 195.13 177.516 195.335 177.786 195.625C178.056 195.915 178.191 196.315 178.191 196.825C178.191 197.515 177.901 198.065 177.321 198.475C176.751 198.875 175.956 199.075 174.936 199.075ZM180.16 187.87H181.225V199H180.16V187.87ZM191.058 195.385H184.458C184.518 196.205 184.833 196.87 185.403 197.38C185.973 197.88 186.693 198.13 187.563 198.13C188.053 198.13 188.503 198.045 188.913 197.875C189.323 197.695 189.678 197.435 189.978 197.095L190.578 197.785C190.228 198.205 189.788 198.525 189.258 198.745C188.738 198.965 188.163 199.075 187.533 199.075C186.723 199.075 186.003 198.905 185.373 198.565C184.753 198.215 184.268 197.735 183.918 197.125C183.568 196.515 183.393 195.825 183.393 195.055C183.393 194.285 183.558 193.595 183.888 192.985C184.228 192.375 184.688 191.9 185.268 191.56C185.858 191.22 186.518 191.05 187.248 191.05C187.978 191.05 188.633 191.22 189.213 191.56C189.793 191.9 190.248 192.375 190.578 192.985C190.908 193.585 191.073 194.275 191.073 195.055L191.058 195.385ZM187.248 191.965C186.488 191.965 185.848 192.21 185.328 192.7C184.818 193.18 184.528 193.81 184.458 194.59H190.053C189.983 193.81 189.688 193.18 189.168 192.7C188.658 192.21 188.018 191.965 187.248 191.965ZM195.356 199.075C194.716 199.075 194.101 198.985 193.511 198.805C192.931 198.615 192.476 198.38 192.146 198.1L192.626 197.26C192.956 197.52 193.371 197.735 193.871 197.905C194.371 198.065 194.891 198.145 195.431 198.145C196.151 198.145 196.681 198.035 197.021 197.815C197.371 197.585 197.546 197.265 197.546 196.855C197.546 196.565 197.451 196.34 197.261 196.18C197.071 196.01 196.831 195.885 196.541 195.805C196.251 195.715 195.866 195.63 195.386 195.55C194.746 195.43 194.231 195.31 193.841 195.19C193.451 195.06 193.116 194.845 192.836 194.545C192.566 194.245 192.431 193.83 192.431 193.3C192.431 192.64 192.706 192.1 193.256 191.68C193.806 191.26 194.571 191.05 195.551 191.05C196.061 191.05 196.571 191.12 197.081 191.26C197.591 191.39 198.011 191.565 198.341 191.785L197.876 192.64C197.226 192.19 196.451 191.965 195.551 191.965C194.871 191.965 194.356 192.085 194.006 192.325C193.666 192.565 193.496 192.88 193.496 193.27C193.496 193.57 193.591 193.81 193.781 193.99C193.981 194.17 194.226 194.305 194.516 194.395C194.806 194.475 195.206 194.56 195.716 194.65C196.346 194.77 196.851 194.89 197.231 195.01C197.611 195.13 197.936 195.335 198.206 195.625C198.476 195.915 198.611 196.315 198.611 196.825C198.611 197.515 198.321 198.065 197.741 198.475C197.171 198.875 196.376 199.075 195.356 199.075ZM202.695 199.075C202.055 199.075 201.44 198.985 200.85 198.805C200.27 198.615 199.815 198.38 199.485 198.1L199.965 197.26C200.295 197.52 200.71 197.735 201.21 197.905C201.71 198.065 202.23 198.145 202.77 198.145C203.49 198.145 204.02 198.035 204.36 197.815C204.71 197.585 204.885 197.265 204.885 196.855C204.885 196.565 204.79 196.34 204.6 196.18C204.41 196.01 204.17 195.885 203.88 195.805C203.59 195.715 203.205 195.63 202.725 195.55C202.085 195.43 201.57 195.31 201.18 195.19C200.79 195.06 200.455 194.845 200.175 194.545C199.905 194.245 199.77 193.83 199.77 193.3C199.77 192.64 200.045 192.1 200.595 191.68C201.145 191.26 201.91 191.05 202.89 191.05C203.4 191.05 203.91 191.12 204.42 191.26C204.93 191.39 205.35 191.565 205.68 191.785L205.215 192.64C204.565 192.19 203.79 191.965 202.89 191.965C202.21 191.965 201.695 192.085 201.345 192.325C201.005 192.565 200.835 192.88 200.835 193.27C200.835 193.57 200.93 193.81 201.12 193.99C201.32 194.17 201.565 194.305 201.855 194.395C202.145 194.475 202.545 194.56 203.055 194.65C203.685 194.77 204.19 194.89 204.57 195.01C204.95 195.13 205.275 195.335 205.545 195.625C205.815 195.915 205.95 196.315 205.95 196.825C205.95 197.515 205.66 198.065 205.08 198.475C204.51 198.875 203.715 199.075 202.695 199.075ZM215.909 191.05C216.649 191.05 217.319 191.22 217.919 191.56C218.519 191.89 218.989 192.36 219.329 192.97C219.669 193.58 219.839 194.275 219.839 195.055C219.839 195.835 219.669 196.53 219.329 197.14C218.989 197.75 218.519 198.225 217.919 198.565C217.319 198.905 216.649 199.075 215.909 199.075C215.249 199.075 214.654 198.935 214.124 198.655C213.604 198.375 213.184 197.97 212.864 197.44V199H211.844V187.87H212.909V192.61C213.239 192.1 213.659 191.715 214.169 191.455C214.689 191.185 215.269 191.05 215.909 191.05ZM215.834 198.13C216.384 198.13 216.884 198.005 217.334 197.755C217.784 197.495 218.134 197.13 218.384 196.66C218.644 196.19 218.774 195.655 218.774 195.055C218.774 194.455 218.644 193.92 218.384 193.45C218.134 192.98 217.784 192.62 217.334 192.37C216.884 192.11 216.384 191.98 215.834 191.98C215.274 191.98 214.769 192.11 214.319 192.37C213.879 192.62 213.529 192.98 213.269 193.45C213.019 193.92 212.894 194.455 212.894 195.055C212.894 195.655 213.019 196.19 213.269 196.66C213.529 197.13 213.879 197.495 214.319 197.755C214.769 198.005 215.274 198.13 215.834 198.13ZM224.726 191.05C225.756 191.05 226.546 191.31 227.096 191.83C227.646 192.34 227.921 193.1 227.921 194.11V199H226.901V197.77C226.661 198.18 226.306 198.5 225.836 198.73C225.376 198.96 224.826 199.075 224.186 199.075C223.306 199.075 222.606 198.865 222.086 198.445C221.566 198.025 221.306 197.47 221.306 196.78C221.306 196.11 221.546 195.57 222.026 195.16C222.516 194.75 223.291 194.545 224.351 194.545H226.856V194.065C226.856 193.385 226.666 192.87 226.286 192.52C225.906 192.16 225.351 191.98 224.621 191.98C224.121 191.98 223.641 192.065 223.181 192.235C222.721 192.395 222.326 192.62 221.996 192.91L221.516 192.115C221.916 191.775 222.396 191.515 222.956 191.335C223.516 191.145 224.106 191.05 224.726 191.05ZM224.351 198.235C224.951 198.235 225.466 198.1 225.896 197.83C226.326 197.55 226.646 197.15 226.856 196.63V195.34H224.381C223.031 195.34 222.356 195.81 222.356 196.75C222.356 197.21 222.531 197.575 222.881 197.845C223.231 198.105 223.721 198.235 224.351 198.235ZM234.969 198.52C234.769 198.7 234.519 198.84 234.219 198.94C233.929 199.03 233.624 199.075 233.304 199.075C232.564 199.075 231.994 198.875 231.594 198.475C231.194 198.075 230.994 197.51 230.994 196.78V192.01H229.584V191.11H230.994V189.385H232.059V191.11H234.459V192.01H232.059V196.72C232.059 197.19 232.174 197.55 232.404 197.8C232.644 198.04 232.984 198.16 233.424 198.16C233.644 198.16 233.854 198.125 234.054 198.055C234.264 197.985 234.444 197.885 234.594 197.755L234.969 198.52ZM239.9 199.075C239.12 199.075 238.42 198.905 237.8 198.565C237.19 198.225 236.71 197.75 236.36 197.14C236.01 196.52 235.835 195.825 235.835 195.055C235.835 194.285 236.01 193.595 236.36 192.985C236.71 192.375 237.19 191.9 237.8 191.56C238.42 191.22 239.12 191.05 239.9 191.05C240.58 191.05 241.185 191.185 241.715 191.455C242.255 191.715 242.68 192.1 242.99 192.61L242.195 193.15C241.935 192.76 241.605 192.47 241.205 192.28C240.805 192.08 240.37 191.98 239.9 191.98C239.33 191.98 238.815 192.11 238.355 192.37C237.905 192.62 237.55 192.98 237.29 193.45C237.04 193.92 236.915 194.455 236.915 195.055C236.915 195.665 237.04 196.205 237.29 196.675C237.55 197.135 237.905 197.495 238.355 197.755C238.815 198.005 239.33 198.13 239.9 198.13C240.37 198.13 240.805 198.035 241.205 197.845C241.605 197.655 241.935 197.365 242.195 196.975L242.99 197.515C242.68 198.025 242.255 198.415 241.715 198.685C241.175 198.945 240.57 199.075 239.9 199.075ZM248.984 191.05C249.974 191.05 250.759 191.34 251.339 191.92C251.929 192.49 252.224 193.325 252.224 194.425V199H251.159V194.53C251.159 193.71 250.954 193.085 250.544 192.655C250.134 192.225 249.549 192.01 248.789 192.01C247.939 192.01 247.264 192.265 246.764 192.775C246.274 193.275 246.029 193.97 246.029 194.86V199H244.964V187.87H246.029V192.49C246.319 192.03 246.719 191.675 247.229 191.425C247.739 191.175 248.324 191.05 248.984 191.05ZM261.157 199.075C260.517 199.075 259.902 198.985 259.312 198.805C258.732 198.615 258.277 198.38 257.947 198.1L258.427 197.26C258.757 197.52 259.172 197.735 259.672 197.905C260.172 198.065 260.692 198.145 261.232 198.145C261.952 198.145 262.482 198.035 262.822 197.815C263.172 197.585 263.347 197.265 263.347 196.855C263.347 196.565 263.252 196.34 263.062 196.18C262.872 196.01 262.632 195.885 262.342 195.805C262.052 195.715 261.667 195.63 261.187 195.55C260.547 195.43 260.032 195.31 259.642 195.19C259.252 195.06 258.917 194.845 258.637 194.545C258.367 194.245 258.232 193.83 258.232 193.3C258.232 192.64 258.507 192.1 259.057 191.68C259.607 191.26 260.372 191.05 261.352 191.05C261.862 191.05 262.372 191.12 262.882 191.26C263.392 191.39 263.812 191.565 264.142 191.785L263.677 192.64C263.027 192.19 262.252 191.965 261.352 191.965C260.672 191.965 260.157 192.085 259.807 192.325C259.467 192.565 259.297 192.88 259.297 193.27C259.297 193.57 259.392 193.81 259.582 193.99C259.782 194.17 260.027 194.305 260.317 194.395C260.607 194.475 261.007 194.56 261.517 194.65C262.147 194.77 262.652 194.89 263.032 195.01C263.412 195.13 263.737 195.335 264.007 195.625C264.277 195.915 264.412 196.315 264.412 196.825C264.412 197.515 264.122 198.065 263.542 198.475C262.972 198.875 262.177 199.075 261.157 199.075ZM270.446 191.05C271.186 191.05 271.856 191.22 272.456 191.56C273.056 191.89 273.526 192.36 273.866 192.97C274.206 193.58 274.376 194.275 274.376 195.055C274.376 195.845 274.206 196.545 273.866 197.155C273.526 197.765 273.056 198.24 272.456 198.58C271.866 198.91 271.196 199.075 270.446 199.075C269.806 199.075 269.226 198.945 268.706 198.685C268.196 198.415 267.776 198.025 267.446 197.515V201.91H266.381V191.11H267.401V192.67C267.721 192.15 268.141 191.75 268.661 191.47C269.191 191.19 269.786 191.05 270.446 191.05ZM270.371 198.13C270.921 198.13 271.421 198.005 271.871 197.755C272.321 197.495 272.671 197.13 272.921 196.66C273.181 196.19 273.311 195.655 273.311 195.055C273.311 194.455 273.181 193.925 272.921 193.465C272.671 192.995 272.321 192.63 271.871 192.37C271.421 192.11 270.921 191.98 270.371 191.98C269.811 191.98 269.306 192.11 268.856 192.37C268.416 192.63 268.066 192.995 267.806 193.465C267.556 193.925 267.431 194.455 267.431 195.055C267.431 195.655 267.556 196.19 267.806 196.66C268.066 197.13 268.416 197.495 268.856 197.755C269.306 198.005 269.811 198.13 270.371 198.13ZM276.547 187.87H277.612V199H276.547V187.87ZM280.575 191.11H281.64V199H280.575V191.11ZM281.115 189.385C280.895 189.385 280.71 189.31 280.56 189.16C280.41 189.01 280.335 188.83 280.335 188.62C280.335 188.42 280.41 188.245 280.56 188.095C280.71 187.945 280.895 187.87 281.115 187.87C281.335 187.87 281.52 187.945 281.67 188.095C281.82 188.235 281.895 188.405 281.895 188.605C281.895 188.825 281.82 189.01 281.67 189.16C281.52 189.31 281.335 189.385 281.115 189.385ZM288.758 198.52C288.558 198.7 288.308 198.84 288.008 198.94C287.718 199.03 287.413 199.075 287.093 199.075C286.353 199.075 285.783 198.875 285.383 198.475C284.983 198.075 284.783 197.51 284.783 196.78V192.01H283.373V191.11H284.783V189.385H285.848V191.11H288.248V192.01H285.848V196.72C285.848 197.19 285.963 197.55 286.193 197.8C286.433 198.04 286.773 198.16 287.213 198.16C287.433 198.16 287.643 198.125 287.843 198.055C288.053 197.985 288.233 197.885 288.383 197.755L288.758 198.52ZM294.647 198.52C294.447 198.7 294.197 198.84 293.897 198.94C293.607 199.03 293.302 199.075 292.982 199.075C292.242 199.075 291.672 198.875 291.272 198.475C290.872 198.075 290.672 197.51 290.672 196.78V192.01H289.262V191.11H290.672V189.385H291.737V191.11H294.137V192.01H291.737V196.72C291.737 197.19 291.852 197.55 292.082 197.8C292.322 198.04 292.662 198.16 293.102 198.16C293.322 198.16 293.532 198.125 293.732 198.055C293.942 197.985 294.122 197.885 294.272 197.755L294.647 198.52ZM296.586 191.11H297.651V199H296.586V191.11ZM297.126 189.385C296.906 189.385 296.721 189.31 296.571 189.16C296.421 189.01 296.346 188.83 296.346 188.62C296.346 188.42 296.421 188.245 296.571 188.095C296.721 187.945 296.906 187.87 297.126 187.87C297.346 187.87 297.531 187.945 297.681 188.095C297.831 188.235 297.906 188.405 297.906 188.605C297.906 188.825 297.831 189.01 297.681 189.16C297.531 189.31 297.346 189.385 297.126 189.385ZM304.634 191.05C305.624 191.05 306.409 191.34 306.989 191.92C307.579 192.49 307.874 193.325 307.874 194.425V199H306.809V194.53C306.809 193.71 306.604 193.085 306.194 192.655C305.784 192.225 305.199 192.01 304.439 192.01C303.589 192.01 302.914 192.265 302.414 192.775C301.924 193.275 301.679 193.97 301.679 194.86V199H300.614V191.11H301.634V192.565C301.924 192.085 302.324 191.715 302.834 191.455C303.354 191.185 303.954 191.05 304.634 191.05ZM318.1 191.11V198.04C318.1 199.38 317.77 200.37 317.11 201.01C316.46 201.66 315.475 201.985 314.155 201.985C313.425 201.985 312.73 201.875 312.07 201.655C311.42 201.445 310.89 201.15 310.48 200.77L311.02 199.96C311.4 200.3 311.86 200.565 312.4 200.755C312.95 200.945 313.525 201.04 314.125 201.04C315.125 201.04 315.86 200.805 316.33 200.335C316.8 199.875 317.035 199.155 317.035 198.175V197.17C316.705 197.67 316.27 198.05 315.73 198.31C315.2 198.57 314.61 198.7 313.96 198.7C313.22 198.7 312.545 198.54 311.935 198.22C311.335 197.89 310.86 197.435 310.51 196.855C310.17 196.265 310 195.6 310 194.86C310 194.12 310.17 193.46 310.51 192.88C310.86 192.3 311.335 191.85 311.935 191.53C312.535 191.21 313.21 191.05 313.96 191.05C314.63 191.05 315.235 191.185 315.775 191.455C316.315 191.725 316.75 192.115 317.08 192.625V191.11H318.1ZM314.065 197.755C314.635 197.755 315.15 197.635 315.61 197.395C316.07 197.145 316.425 196.8 316.675 196.36C316.935 195.92 317.065 195.42 317.065 194.86C317.065 194.3 316.935 193.805 316.675 193.375C316.425 192.935 316.07 192.595 315.61 192.355C315.16 192.105 314.645 191.98 314.065 191.98C313.495 191.98 312.98 192.1 312.52 192.34C312.07 192.58 311.715 192.92 311.455 193.36C311.205 193.8 311.08 194.3 311.08 194.86C311.08 195.42 311.205 195.92 311.455 196.36C311.715 196.8 312.07 197.145 312.52 197.395C312.98 197.635 313.495 197.755 314.065 197.755ZM321.183 199.075C320.963 199.075 320.773 198.995 320.613 198.835C320.463 198.675 320.388 198.48 320.388 198.25C320.388 198.02 320.463 197.83 320.613 197.68C320.773 197.52 320.963 197.44 321.183 197.44C321.403 197.44 321.593 197.52 321.753 197.68C321.913 197.83 321.993 198.02 321.993 198.25C321.993 198.48 321.913 198.675 321.753 198.835C321.593 198.995 321.403 199.075 321.183 199.075Z" fill="#E9E9E9"/>
</g>
<defs>
<clipPath id="clip0">
<rect width="370" height="219" fill="white"/>
</clipPath>
<clipPath id="clip1">
<rect width="141" height="141" fill="white" transform="translate(99 -8)"/>
</clipPath>
</defs>
</svg>
