<svg width="141" height="141" viewBox="0 0 141 141" fill="none" xmlns="http://www.w3.org/2000/svg">
<g clip-path="url(#clip0)">
<path d="M38.1558 66.7824L40.7457 62.8297L88.8653 94.3494L86.2767 98.3022L38.1558 66.7824Z" fill="#F29200"/>
<path d="M137.661 103.022L131.96 108.723C131.517 109.165 130.916 109.415 130.29 109.415H115.715V98.0012H110.992V109.415H94.4613V98.0012H89.7382V109.415H70.846C70.1034 109.412 69.4046 109.063 68.9572 108.47L63.2886 100.913L59.5111 103.747L65.1785 111.303C66.5184 113.085 68.617 114.134 70.846 114.138H130.29C132.171 114.143 133.974 113.395 135.299 112.062L141 106.361L137.661 103.022Z" fill="#666666"/>
<path d="M68.4844 57.4608H109.91C124.854 57.4608 136.969 69.5752 136.969 84.5193V86.784C136.969 95.3699 130.009 102.33 121.423 102.33H101.113C83.4735 102.33 75.3326 89.9746 71.6958 72.7139L68.4844 57.4608Z" fill="#ED1C24"/>
<path d="M109.91 57.4608H99.1844L112.855 83.4377L122.773 102.262C130.803 101.564 136.968 94.8441 136.969 86.784V84.5193C136.969 69.5752 124.854 57.4608 109.91 57.4608V57.4608Z" fill="#00BBD6"/>
<path d="M68.4844 57.4608H14.1692L9.44613 38.5686L0 36.207L7.0846 62.1839L4.72306 76.3531H11.8077L14.1692 66.9069H70.4724L68.4844 57.4608Z" fill="#F8CF26"/>
<path d="M70.846 57.4608C70.846 52.2443 75.0755 48.0147 80.2921 48.0147H92.0998C97.3163 48.0147 101.546 52.2443 101.546 57.4608H70.846Z" fill="#666666"/>
<path d="M82.6536 26.7609H87.3767V48.0147H82.6536V26.7609Z" fill="#333333"/>
<path d="M33.0615 31.484H139.33V36.207H33.0615V31.484Z" fill="#999999"/>
<path d="M77.9306 62.1839H87.3767V66.907H77.9306V62.1839Z" fill="#29485A"/>
<path d="M77.9306 71.63H85.0152V76.3531H77.9306V71.63Z" fill="#29485A"/>
<path d="M127.523 88.1608H136.969V92.8838H127.523V88.1608Z" fill="#29485A"/>
<path d="M109.91 57.4608H99.1844L112.855 83.4377H136.915C136.344 68.9341 124.424 57.4689 109.91 57.4608V57.4608Z" fill="#92D7E7"/>
</g>
<defs>
<clipPath id="clip0">
<rect width="141" height="141" fill="white"/>
</clipPath>
</defs>
</svg>
